<?xml version="1.0" encoding="utf-8"?>
<!-- Generator: Adobe Illustrator 21.1.0, SVG Export Plug-In . SVG Version: 6.00 Build 0)  -->
<svg version="1.1" id="Ebene_1" xmlns="http://www.w3.org/2000/svg" xmlns:xlink="http://www.w3.org/1999/xlink" x="0px" y="0px"
	 viewBox="0 0 36 40" style="enable-background:new 0 0 36 40;" xml:space="preserve">
<style type="text/css">
	.st0{fill:#FFFFFF;}
</style>
<path id="Cocktail" class="st0" d="M22,25.3c0-1.5,0.6-3,1.7-4.1L35.8,8.5C36,8.3,36.1,8,35.9,7.8c-0.1-0.3-0.3-0.4-0.6-0.4h-9
	l1.5-4.1l6.3-1.9c0.4-0.1,0.6-0.4,0.5-0.8c-0.1-0.4-0.4-0.6-0.8-0.5c0,0,0,0,0,0l-6.7,2c-0.2,0-0.4,0.2-0.5,0.4L25,7.4H10.6
	c-0.4-2.9-3-5-6-4.6s-5,3-4.6,6c0.3,2.7,2.6,4.7,5.3,4.7c1,0,1.9-0.3,2.8-0.8l4.1,4.3c0,0,0,0,0,0l4.1,4.3c1,1,1.6,2.4,1.7,3.8
	c0,0.1-0.1,0.2-0.1,0.3v7.3c0,2.2-1.3,4.1-3.3,4.9l-2.9,1.1c-0.3,0.1-0.5,0.4-0.4,0.7c0.1,0.3,0.3,0.5,0.7,0.5h16
	c0.3,0,0.5-0.2,0.5-0.4c0-0.1,0-0.1,0-0.2c0.1-0.3-0.1-0.6-0.4-0.7l-2.9-1.1c-2-0.8-3.3-2.8-3.3-4.9v-6.9C22,25.6,22,25.5,22,25.3z
	 M33.8,8.7l-4.5,4.7c-1.4,0-2.8,0.5-3.8,1.5c-0.6,0.6-1.4,0.9-2.2,1.1l2.6-7.3L33.8,8.7L33.8,8.7z M21.9,16c-0.6-0.1-1.1-0.5-1.4-1
	c-0.7-0.9-1.8-1.5-2.9-1.6c-1.4,0-2.7,0.5-3.7,1.5c-0.3,0.3-0.7,0.5-1,0.7l-4.1-4.2c0-0.1-0.1-0.1-0.1-0.1L6.2,8.7h18.3L21.9,16z
	 M5.3,12c-2.2,0-4-1.8-4-4s1.8-4,4-4c2,0,3.6,1.4,4,3.3H4.7c-0.3,0-0.5,0.1-0.6,0.4C4,7.9,4,8,4,8.1c0,0.2,0.1,0.3,0.2,0.4l2.9,3.1
	C6.6,11.9,6,12,5.3,12L5.3,12z M17.7,20.8c-0.1-0.2-0.3-0.3-0.4-0.5l-3.5-3.7c0.4-0.2,0.8-0.5,1.1-0.8c0.7-0.8,1.7-1.2,2.7-1.1
	c0.8,0,1.5,0.4,1.9,1c0.5,0.7,1.2,1.2,2,1.4l-0.7,1.9c-0.1,0.3,0.1,0.7,0.4,0.9c0.1,0.1,0.1,0.1,0.2,0.1c0.3,0,0.5-0.2,0.7-0.5
	l0.8-2.2c1.4,0,2.7-0.6,3.7-1.5c0.4-0.4,0.8-0.7,1.3-0.9l-5.1,5.3c-1.2,1.2-1.9,2.7-2,4.4h-1.4c-0.1-1.1-0.5-2.2-1.1-3.2
	c-0.1-0.2-0.2-0.3-0.3-0.5C17.9,20.9,17.8,20.8,17.7,20.8L17.7,20.8z M24.6,38.7h-9.1c2.4-1.1,3.9-3.5,3.9-6.1V26h1.3v6.6
	C20.7,35.2,22.2,37.6,24.6,38.7L24.6,38.7z"/>
</svg>
