<svg enable-background="new 0 0 36 40" viewBox="0 0 36 40" xmlns="http://www.w3.org/2000/svg"><path d="m22 25.3c0-1.5.6-3 1.7-4.1l12.1-12.7c.2-.2.3-.5.1-.7-.1-.3-.3-.4-.6-.4h-9l1.5-4.1 6.3-1.9c.4-.1.6-.4.5-.8s-.4-.6-.8-.5l-6.7 2c-.2 0-.4.2-.5.4l-1.6 4.9h-14.4c-.4-2.9-3-5-6-4.6s-5 3-4.6 6c.3 2.7 2.6 4.7 5.3 4.7 1 0 1.9-.3 2.8-.8l4.1 4.3 4.1 4.3c1 1 1.6 2.4 1.7 3.8 0 .1-.1.2-.1.3v7.3c0 2.2-1.3 4.1-3.3 4.9l-2.9 1.1c-.3.1-.5.4-.4.7s.3.5.7.5h16c.3 0 .5-.2.5-.4 0-.1 0-.1 0-.2.1-.3-.1-.6-.4-.7l-2.9-1.1c-2-.8-3.3-2.8-3.3-4.9v-6.9c.1-.1.1-.2.1-.4zm11.8-16.6-4.5 4.7c-1.4 0-2.8.5-3.8 1.5-.6.6-1.4.9-2.2 1.1l2.6-7.3zm-11.9 7.3c-.6-.1-1.1-.5-1.4-1-.7-.9-1.8-1.5-2.9-1.6-1.4 0-2.7.5-3.7 1.5-.3.3-.7.5-1 .7l-4.1-4.2c0-.1-.1-.1-.1-.1l-2.5-2.6h18.3zm-16.6-4c-2.2 0-4-1.8-4-4s1.8-4 4-4c2 0 3.6 1.4 4 3.3h-4.6c-.3 0-.5.1-.6.4-.1.2-.1.3-.1.4 0 .2.1.3.2.4l2.9 3.1c-.5.3-1.1.4-1.8.4zm12.4 8.8c-.1-.2-.3-.3-.4-.5l-3.5-3.7c.4-.2.8-.5 1.1-.8.7-.8 1.7-1.2 2.7-1.1.8 0 1.5.4 1.9 1 .5.7 1.2 1.2 2 1.4l-.7 1.9c-.1.3.1.7.4.9.1.1.1.1.2.1.3 0 .5-.2.7-.5l.8-2.2c1.4 0 2.7-.6 3.7-1.5.4-.4.8-.7 1.3-.9l-5.1 5.3c-1.2 1.2-1.9 2.7-2 4.4h-1.4c-.1-1.1-.5-2.2-1.1-3.2-.1-.2-.2-.3-.3-.5-.1 0-.2-.1-.3-.1zm6.9 17.9h-9.1c2.4-1.1 3.9-3.5 3.9-6.1v-6.6h1.3v6.6c0 2.6 1.5 5 3.9 6.1z" fill="#fff"/></svg>