<svg enable-background="new 0 0 34.2 41.3" viewBox="0 0 34.2 41.3" xmlns="http://www.w3.org/2000/svg"><path d="m17.1 33.9c.4 0 .7-.3.7-.7v-19.5c0-.4-.3-.7-.7-.7s-.7.3-.7.7v19.5c0 .4.3.7.7.7zm-7.1 0c.4 0 .7-.3.7-.7v-19.5c0-.4-.3-.7-.7-.7s-.7.3-.7.7v19.5c0 .4.3.7.7.7zm14.2 0c.4 0 .7-.3.7-.7v-19.5c0-.4-.3-.7-.7-.7s-.7.3-.7.7v19.5c0 .4.3.7.7.7zm9.2-29.7h-10c-.1-1.2-.5-2.4-1.3-3.3-.5-.6-1.3-.9-2.2-.9h-7.1c-.8 0-1.6.3-2.2.9-.8.9-1.3 2.1-1.3 3.3h-8.6c-.4 0-.7.3-.7.7s.3.7.7.7h1.4l1.4 32.2c0 1.9 1.5 3.5 3.4 3.5h.1 20.1c1.9 0 3.5-1.5 3.5-3.4v-.1l1.4-32.2h1.4c.4 0 .7-.3.7-.7.1-.3-.2-.7-.7-.7.1 0 .1 0 0 0zm-21.8-2.3c.3-.3.8-.5 1.2-.5h7.1c.5 0 .9.2 1.2.5.6.6.9 1.5.9 2.3h-11.3c.1-.8.4-1.7.9-2.3zm17.6 35.9c0 1.1-.9 2.1-2 2.1h-.1-20.1c-1.1 0-2.1-.9-2.1-2.1 0 0 0 0 0-.1l-1.3-32.1h27z" fill="#fff"/></svg>