<?xml version="1.0" encoding="utf-8"?>
<!-- Generator: Adobe Illustrator 21.1.0, SVG Export Plug-In . SVG Version: 6.00 Build 0)  -->
<svg version="1.1" id="Ebene_1" xmlns="http://www.w3.org/2000/svg" xmlns:xlink="http://www.w3.org/1999/xlink" x="0px" y="0px"
	 viewBox="0 0 34.2 41.3" style="enable-background:new 0 0 34.2 41.3;" xml:space="preserve">
<style type="text/css">
	.st0{fill:#FFFFFF;}
</style>
<path id="Garbage" class="st0" d="M17.1,33.9c0.4,0,0.7-0.3,0.7-0.7V13.7c0-0.4-0.3-0.7-0.7-0.7c-0.4,0-0.7,0.3-0.7,0.7v19.5
	C16.4,33.6,16.7,33.9,17.1,33.9C17.1,33.9,17.1,33.9,17.1,33.9z M10,33.9c0.4,0,0.7-0.3,0.7-0.7V13.7c0-0.4-0.3-0.7-0.7-0.7
	c-0.4,0-0.7,0.3-0.7,0.7v19.5C9.3,33.6,9.6,33.9,10,33.9C10,33.9,10,33.9,10,33.9z M24.2,33.9c0.4,0,0.7-0.3,0.7-0.7V13.7
	c0-0.4-0.3-0.7-0.7-0.7c-0.4,0-0.7,0.3-0.7,0.7v19.5C23.5,33.6,23.8,33.9,24.2,33.9C24.2,33.9,24.2,33.9,24.2,33.9z M33.4,4.2h-10
	c-0.1-1.2-0.5-2.4-1.3-3.3C21.6,0.3,20.8,0,19.9,0h-7.1c-0.8,0-1.6,0.3-2.2,0.9C9.8,1.8,9.3,3,9.3,4.2H0.7C0.3,4.2,0,4.5,0,4.9
	c0,0.4,0.3,0.7,0.7,0.7c0,0,0,0,0,0h1.4l1.4,32.2c0,1.9,1.5,3.5,3.4,3.5c0,0,0.1,0,0.1,0h20.1c1.9,0,3.5-1.5,3.5-3.4
	c0,0,0-0.1,0-0.1L32,5.6h1.4c0.4,0,0.7-0.3,0.7-0.7C34.2,4.6,33.9,4.2,33.4,4.2C33.5,4.2,33.5,4.2,33.4,4.2L33.4,4.2z M11.6,1.9
	c0.3-0.3,0.8-0.5,1.2-0.5h7.1c0.5,0,0.9,0.2,1.2,0.5C21.7,2.5,22,3.4,22,4.2H10.7C10.8,3.4,11.1,2.5,11.6,1.9z M29.2,37.8
	c0,1.1-0.9,2.1-2,2.1c0,0-0.1,0-0.1,0H7c-1.1,0-2.1-0.9-2.1-2.1c0,0,0,0,0-0.1L3.6,5.6h27L29.2,37.8z"/>
</svg>
