<?xml version="1.0" encoding="utf-8"?>
<!-- Generator: Adobe Illustrator 21.1.0, SVG Export Plug-In . SVG Version: 6.00 Build 0)  -->
<svg version="1.1" id="Ebene_1" xmlns="http://www.w3.org/2000/svg" xmlns:xlink="http://www.w3.org/1999/xlink" x="0px" y="0px"
	 viewBox="0 0 100 100" style="enable-background:new 0 0 100 100;" xml:space="preserve">
<style type="text/css">
	.st0{fill:#FFFFFF;}
</style>
<g>
	<g id="a">
		<path class="st0" d="M48.5,82c-0.6-0.1-1.3-0.2-1.9-0.2c-6.9-0.8-13.4-3.8-18.4-8.7c-5.2-4.9-8.5-11.5-9.5-18.5
			c-0.1-0.9-0.2-1.8-0.4-2.8v-3.5c0.1-1.1,0.2-2.2,0.4-3.3c1-6.6,4.1-12.8,8.9-17.5c4.8-5,11.2-8.2,18.1-9.1
			c0.9-0.1,1.9-0.2,2.8-0.4H52c0.2,0,0.4,0.1,0.5,0.1c6.3,0.4,12.3,2.7,17.3,6.7c6.6,5,10.9,12.5,12,20.7c0.1,0.9,0.2,1.9,0.4,2.8
			v3.5c0,0.2-0.1,0.4-0.1,0.5c-0.3,5.1-1.9,10-4.6,14.3c-4.9,8.2-13.2,13.7-22.7,15C53.9,81.8,53,81.9,52,82L48.5,82z M57,76.7
			c0.4,0.3,0.9,0.4,1.4,0.2C68.6,73.4,75,66.5,77.6,56c0.4-1.8,0.7-3.7,0.6-5.6c-0.3-0.1-0.6-0.2-0.9-0.3c-0.7-0.5-1.3-1-1.9-1.6
			c-0.9-0.8-1.7-1.6-2.6-2.3c-0.3-0.3-0.9-0.4-1.3-0.2c-0.5,0.2-0.1,0.6,0,0.9c0.3,0.6,0.1,1.4-0.6,1.7c-0.1,0.1-0.3,0.1-0.4,0.1
			c-0.4,0.1-0.8,0.1-1.2,0.1c-1.2-0.2-2.3-0.8-3-1.7c-1.2-1.3-2.3-2.8-3.4-4.2c-0.5-0.7-1.1-1.3-1.7-1.9c-2.2-1.5-4.6-2.6-7.1-3.3
			c-0.7-0.2-1.5-0.2-2.2,0.2c-0.7,0.4-1.4,0.7-2.1,1.1c-0.6-0.8-0.5-1.8,0.2-2.5c0.6-0.5,1.3-1,2-1.3c1.2-0.6,2.4-1,3.6-1.4
			c0.6-0.1,0.9-0.7,0.8-1.2c0-0.1,0-0.2-0.1-0.2C56.2,32,56.1,31.5,56,31c-0.1-0.4,0-0.7,0.3-1c1.4-1,2.9-2,4.4-3
			c0.5-0.3,1.1-0.1,1.4,0.4c0,0,0,0,0,0c0.1,0.2,0.2,0.5,0.3,0.7c0.3,0.7,0.4,0.8,1.1,0.5c1-0.5,2-1,3-1.5
			c-4.7-3.4-10.4-5.2-16.2-5.2c0.2,0.2,0.6,0.3,0.8,0.6c0.1,0.3,0.1,0.7,0.1,1c0,0.1,0.1,0.3,0.1,0.4c0.2,0.6,0.4,1,1.2,1
			c0.5,0,0.9,0.1,1.3,0.4c0.4,0.3,0.5,0.8,0.3,1.3c-0.1,0.2-0.3,0.3-0.5,0.4c-0.5,0.2-1.1,0.4-1.6,0.6c-3.2,1.2-6.4,2.3-9.6,3.5
			c-0.4,0.1-0.9,0.2-1.3,0.2c-0.3,0-0.5-0.2-0.6-0.5c-0.1-0.3,0-0.6,0.2-0.8c0.4-0.4,0.8-0.7,1.2-1.1c1.4-1.1,2.7-2.1,4.1-3.2
			c0.2-0.2,0.5-0.4,0.6-0.7c0-0.1-0.1-0.1-0.1-0.2c-0.4,0.1-0.7,0.2-1,0.3c-2.3,1.1-4.6,2.2-6.8,3.3c-1.2,0.6-2.3,1.4-2.3,3
			c0,0.2,0,0.3-0.1,0.5c-0.3,0.3-0.6,0.7-1,0.8c-0.5,0.1-1.1,0.1-1.6-0.1c-1.2-0.5-2.6-0.4-3.7,0.2c-0.3,0.1-0.7,0.2-1.1,0.2
			c-0.3,0-0.7,0.1-0.9,0.4c-1.7,2.3-2.9,4.8-3.8,7.4c-0.3,0.7-0.4,1.4-0.4,2.2c0.3,3.8,1.3,7.4,4.1,10.2c0.2,0.2,0.4,0.4,0.6,0.6
			c0.4,0.4,0.7,1,0.6,1.6c0,1.5-0.5,3-1.4,4.2c-0.5,0.7-1,1.4-1.4,2.1c-0.4,0.6-0.4,1.4,0,2.1c3.1,5.3,7.8,9.5,13.4,11.9
			c0.3,0.1,0.7,0.2,1,0.1c2.8-0.8,5.7-1.2,8.6-1.4c0.1,0,0.3,0,0.4,0C52.1,74.4,54.8,75.2,57,76.7z M54,65.3
			c-0.3-1.4-0.5-2.7-0.7-4.1c-0.4-2.3-0.7-4.6-1.1-7c-0.1-0.3-0.2-0.6-0.3-0.9c-0.2-0.7-0.8-1.2-1.4-1.3c-1.5-0.4-2.9-0.8-4.4-1.3
			c-1.1-0.3-2.2-0.9-3.1-1.8c-0.8-0.7-1.1-1.9-0.6-2.9c1.5-3.5,5.1-5.8,8.9-5.7c1.2,0.2,2.4,0.5,3.5,0.9c-0.2,0.5,0,1.1,0.4,1.3
			c0,0,0.1,0,0.1,0.1c0.9,0.4,1.9,0.8,2.9,1.1c1,0.3,2.1,0.4,3.2,0.7c0.4,0.1,0.7,0.2,0.9,0.5c0.5,0.6,0.9,1.2,1.3,1.9
			c0.3,0.5,0.5,1,0.8,1.5c0.4,0.9,1.1,1.6,2,2c0.7,0.3,1.4,0.8,2.1,1.2c0.3,0.1,0.5,0.5,0.4,0.8c0,0,0,0,0,0.1c0,1.4-0.8,2.6-2.1,3
			c-1.1,0.5-1.9,1.3-2.6,2.3c-1.6,2.3-3.3,4.6-5.1,6.8c-0.7,0.8-1.5,1.5-2.4,2c-0.4,0.3-0.8,0.4-1.3,0.4
			C54.8,66.8,54.2,66.3,54,65.3z"/>
	</g>
</g>
</svg>
