<?xml version="1.0" encoding="utf-8"?>
<!-- Generator: Adobe Illustrator 21.1.0, SVG Export Plug-In . SVG Version: 6.00 Build 0)  -->
<svg version="1.1" id="Ebene_1" xmlns="http://www.w3.org/2000/svg" xmlns:xlink="http://www.w3.org/1999/xlink" x="0px" y="0px"
	 viewBox="0 0 100 100" style="enable-background:new 0 0 100 100;" xml:space="preserve">
<style type="text/css">
	.st0{fill:#009EE3;}
</style>
<g>
	<g id="a">
		<g transform="translate(-653.033 1662)">
			<path class="st0" d="M715.2-1584.5h7.7c1.4,0,1.7-0.4,1.7-1.7v-51.5c0-1.3-0.4-1.6-1.6-1.6h-28.7c-0.2,0-0.4,0-0.7,0v1.8
				c0,1.7,0,3.5,0,5.2c0.1,2.6-2,4.8-4.6,4.9c-0.1,0-0.2,0-0.2,0c-2.1,0-4.1,0-6.2,0h-0.9v41.3c0,1.3,0.4,1.6,1.6,1.6h7.8
				c-0.6,1.2-1.2,2.3-1.6,3.5c-0.2,0.9-1.1,1.4-2,1.2c-1.9-0.1-3.7,0-5.6,0c-2.6,0.1-4.9-1.9-5-4.5c0-0.2,0-0.3,0-0.5v-42.8
				c0-1.4,0.5-2.8,1.5-3.7c3.7-3.7,7.5-7.5,11.2-11.2c1-1,2.3-1.6,3.7-1.5h31c2.6-0.1,4.8,2,4.9,4.6c0,0.1,0,0.2,0,0.4v54.1
				c0,3.2-2,5.2-5.2,5.2c-2,0-4.1,0-6.1,0c-0.4,0.1-0.8-0.2-0.9-0.6C716.5-1581.7,715.9-1583,715.2-1584.5z"/>
			<path class="st0" d="M708.3-1590c-0.7,3.3-2.5,4-5.2,1.9c-0.9,0.8-1.9,1.6-3.2,1.1c-1.3-0.5-1.8-1.6-1.9-2.9
				c-1.3,0-2.5-0.1-3.2-1.3c-0.6-1.1-0.4-2.5,0.5-3.4c-1.1-0.8-1.9-1.7-1.7-3.1c0.3-1.2,1.3-2.2,2.6-2.3c-0.3-1.3-0.4-2.5,0.7-3.4
				s2.2-0.7,3.5-0.1c0.6-1.2,1.3-2.2,2.8-2.2c1.3,0.1,2.4,0.9,2.7,2.2c1.2-0.6,2.4-0.8,3.5,0.1c1,0.9,1.2,2.2,0.7,3.4
				c1.3,0.3,2.4,0.9,2.6,2.4c0.2,1.4-0.6,2.3-1.6,3c0.8,1.1,1.2,2.2,0.5,3.5C710.8-1590.3,709.5-1589.8,708.3-1590z M703.2-1600.1
				c-2.1,0-3.7,1.7-3.7,3.7s1.7,3.7,3.7,3.7s3.7-1.7,3.7-3.7c0,0,0,0,0,0C706.9-1598.5,705.2-1600.1,703.2-1600.1z"/>
			<path class="st0" d="M703.2-1622.6c5.2,0,10.3,0,15.5,0c0.3,0,1,0.2,1,0.4c0.1,0.6,0.1,1.2-0.1,1.7c0,0.1-0.5,0.2-0.8,0.2
				c-8.9,0-17.9,0-26.9,0c-1.5,0-3,0-4.5,0c-0.7,0-1-0.3-0.9-0.9c0-0.1,0-0.3,0-0.4c-0.1-0.7,0.2-1,0.9-1c3.6,0,7.1,0,10.7,0
				C699.9-1622.6,701.6-1622.6,703.2-1622.6z"/>
			<path class="st0" d="M703.2-1615.5c-5.2,0-10.4,0-15.6,0c-0.3,0-1-0.2-1-0.4c-0.1-0.6-0.1-1.2,0.1-1.7c0-0.1,0.5-0.2,0.8-0.2
				c4.9,0,9.7,0,14.6,0c5.5,0,11.1,0,16.6,0c0.4,0,1,0.1,1,0.3c0.1,0.6,0.1,1.2,0,1.7c0,0.1-0.6,0.2-0.8,0.2
				C713.6-1615.5,708.4-1615.5,703.2-1615.5L703.2-1615.5z"/>
			<path class="st0" d="M703.2-1613h15.6c1.1,0,1.1,0.1,1.1,1.2c0,1.1-0.1,1.1-1.1,1.1h-31.2c-0.9,0-1-0.1-1-1.1c0-1.1,0-1.2,1-1.2
				C692.7-1613,697.9-1613,703.2-1613z"/>
			<path class="st0" d="M705.4-1584.2c2.2,0,4.2-1.4,5.1-3.4c0.6,1.2,1.1,2.3,1.6,3.4c1.3,2.8,2.6,5.6,3.9,8.4
				c0.1,0.2,0.1,0.4,0.1,0.7c-0.2,0-0.5,0-0.7-0.1c-1.5-0.8-3-1.6-4.6-2.5c-0.1,0.3-0.3,0.6-0.4,0.8c-0.5,1.2-0.9,2.4-1.4,3.5
				c-0.1,0.2-0.3,0.4-0.5,0.6c-0.2-0.2-0.3-0.4-0.4-0.7c-0.7-2.6-1.3-5.2-1.9-7.8C705.9-1582.1,705.7-1583.1,705.4-1584.2z"/>
			<path class="st0" d="M695.8-1587.5c0.9,2,2.9,3.3,5,3.3c-0.3,1.4-0.7,2.7-1,4c-0.6,2.3-1.1,4.6-1.7,6.8c-0.1,0.2-0.2,0.5-0.4,0.6
				c-0.2-0.2-0.4-0.4-0.5-0.6c-0.5-1.2-0.9-2.3-1.4-3.5c-0.1-0.3-0.2-0.5-0.4-0.9c-1.3,0.7-2.6,1.4-3.8,2.1
				c-0.3,0.2-0.6,0.3-0.8,0.4c-0.2,0-0.4,0.1-0.6,0c0-0.2,0-0.4,0-0.6c0.6-1.2,1.1-2.4,1.7-3.6c1.2-2.5,2.3-5,3.5-7.5
				C695.6-1587,695.7-1587.2,695.8-1587.5z"/>
			<path class="st0" d="M707.9-1632.1h6.2c0.9,0,0.9,0.1,0.9,1.1c0,1.1-0.1,1.2-0.9,1.2c-4.1,0-8.3,0-12.4,0c-0.7,0-1-0.3-0.9-0.9
				c0-0.1,0-0.3,0-0.4c-0.1-0.7,0.2-1,0.9-1C703.8-1632.1,705.9-1632.1,707.9-1632.1z"/>
		</g>
	</g>
</g>
</svg>
