<?xml version="1.0" encoding="utf-8"?>
<!-- Generator: Adobe Illustrator 21.1.0, SVG Export Plug-In . SVG Version: 6.00 Build 0)  -->
<svg version="1.1" id="Ebene_1" xmlns="http://www.w3.org/2000/svg" xmlns:xlink="http://www.w3.org/1999/xlink" x="0px" y="0px"
	 viewBox="0 0 100 100" style="enable-background:new 0 0 100 100;" xml:space="preserve">
<style type="text/css">
	.st0{fill:#009EE3;stroke:#009EE3;stroke-width:2;}
</style>
<g>
	<g id="a">
		<path class="st0" d="M23.2,82c-1.3-0.8-1.5-1.4-0.9-3l14.4-43.5c0.4-1.2,0.8-1.5,2-1.5h23.6c0.9-0.1,1.7,0.5,1.8,1.4
			c4.8,14.7,9.7,29.3,14.5,44c0.4,1.2,0.2,1.9-1,2.7L23.2,82z M74.8,78.3c-0.1-0.2-0.1-0.4-0.2-0.6c-4.4-13.2-8.7-26.4-13.1-39.7
			c-0.1-0.4-0.3-0.5-0.7-0.5c-6.9,0-13.8,0-20.8,0c-0.4,0-0.6,0.2-0.8,0.6c-4.3,13.1-8.7,26.3-13,39.4c-0.1,0.2-0.1,0.4-0.2,0.7
			C42.3,78.3,58.5,78.3,74.8,78.3L74.8,78.3z"/>
		<path class="st0" d="M51.8,18c1,0.2,1.9,0.3,2.9,0.6c2.4,0.5,4.6,1.9,6.1,3.8c1.7,2.2,1.8,5.3,0.2,7.6c-0.5,0.8-1.5,1.1-2.3,0.7
			c0,0,0,0,0,0c-0.8-0.4-1-1.4-0.6-2.1c0-0.1,0.1-0.1,0.1-0.2c1-1.5,0.7-3.5-0.6-4.7c-1.5-1.3-3.3-2.1-5.3-2.3
			c-2.3-0.4-4.7-0.1-6.8,0.9c-0.8,0.4-1.5,0.9-2.2,1.5c-1.3,1.2-1.5,3.1-0.6,4.5c0.2,0.4,0.3,0.8,0.3,1.2c-0.1,0.7-0.6,1.3-1.2,1.4
			C41,31,40.3,30.7,39.9,30c-1.9-2.8-1.4-6.5,1.2-8.7c1.8-1.7,4.1-2.8,6.6-3.1c0.5-0.1,0.9-0.1,1.4-0.2L51.8,18z"/>
	</g>
</g>
</svg>
