<svg enable-background="new 0 0 100 100" viewBox="0 0 100 100" xmlns="http://www.w3.org/2000/svg"><g fill="#009ee3" transform="translate(-653.033 1662)"><path d="m715.2-1584.5h7.7c1.4 0 1.7-.4 1.7-1.7v-51.5c0-1.3-.4-1.6-1.6-1.6h-28.7c-.2 0-.4 0-.7 0v1.8 5.2c.1 2.6-2 4.8-4.6 4.9-.1 0-.2 0-.2 0-2.1 0-4.1 0-6.2 0h-.9v41.3c0 1.3.4 1.6 1.6 1.6h7.8c-.6 1.2-1.2 2.3-1.6 3.5-.2.9-1.1 1.4-2 1.2-1.9-.1-3.7 0-5.6 0-2.6.1-4.9-1.9-5-4.5 0-.2 0-.3 0-.5v-42.8c0-1.4.5-2.8 1.5-3.7l11.2-11.2c1-1 2.3-1.6 3.7-1.5h31c2.6-.1 4.8 2 4.9 4.6v.4 54.1c0 3.2-2 5.2-5.2 5.2-2 0-4.1 0-6.1 0-.4.1-.8-.2-.9-.6-.5-1.4-1.1-2.7-1.8-4.2z"/><path d="m708.3-1590c-.7 3.3-2.5 4-5.2 1.9-.9.8-1.9 1.6-3.2 1.1s-1.8-1.6-1.9-2.9c-1.3 0-2.5-.1-3.2-1.3-.6-1.1-.4-2.5.5-3.4-1.1-.8-1.9-1.7-1.7-3.1.3-1.2 1.3-2.2 2.6-2.3-.3-1.3-.4-2.5.7-3.4s2.2-.7 3.5-.1c.6-1.2 1.3-2.2 2.8-2.2 1.3.1 2.4.9 2.7 2.2 1.2-.6 2.4-.8 3.5.1 1 .9 1.2 2.2.7 3.4 1.3.3 2.4.9 2.6 2.4.2 1.4-.6 2.3-1.6 3 .8 1.1 1.2 2.2.5 3.5-.8.8-2.1 1.3-3.3 1.1zm-5.1-10.1c-2.1 0-3.7 1.7-3.7 3.7s1.7 3.7 3.7 3.7 3.7-1.7 3.7-3.7c0-2.1-1.7-3.7-3.7-3.7z"/><path d="m703.2-1622.6h15.5c.3 0 1 .2 1 .4.1.6.1 1.2-.1 1.7 0 .1-.5.2-.8.2-8.9 0-17.9 0-26.9 0-1.5 0-3 0-4.5 0-.7 0-1-.3-.9-.9 0-.1 0-.3 0-.4-.1-.7.2-1 .9-1h10.7z"/><path d="m703.2-1615.5c-5.2 0-10.4 0-15.6 0-.3 0-1-.2-1-.4-.1-.6-.1-1.2.1-1.7 0-.1.5-.2.8-.2h14.6 16.6c.4 0 1 .1 1 .3.1.6.1 1.2 0 1.7 0 .1-.6.2-.8.2-5.3.1-10.5.1-15.7.1z"/><path d="m703.2-1613h15.6c1.1 0 1.1.1 1.1 1.2s-.1 1.1-1.1 1.1h-31.2c-.9 0-1-.1-1-1.1 0-1.1 0-1.2 1-1.2z"/><path d="m705.4-1584.2c2.2 0 4.2-1.4 5.1-3.4.6 1.2 1.1 2.3 1.6 3.4 1.3 2.8 2.6 5.6 3.9 8.4.1.2.1.4.1.7-.2 0-.5 0-.7-.1-1.5-.8-3-1.6-4.6-2.5-.1.3-.3.6-.4.8-.5 1.2-.9 2.4-1.4 3.5-.1.2-.3.4-.5.6-.2-.2-.3-.4-.4-.7-.7-2.6-1.3-5.2-1.9-7.8-.3-.8-.5-1.8-.8-2.9z"/><path d="m695.8-1587.5c.9 2 2.9 3.3 5 3.3-.3 1.4-.7 2.7-1 4-.6 2.3-1.1 4.6-1.7 6.8-.1.2-.2.5-.4.6-.2-.2-.4-.4-.5-.6-.5-1.2-.9-2.3-1.4-3.5-.1-.3-.2-.5-.4-.9-1.3.7-2.6 1.4-3.8 2.1-.3.2-.6.3-.8.4-.2 0-.4.1-.6 0 0-.2 0-.4 0-.6.6-1.2 1.1-2.4 1.7-3.6 1.2-2.5 2.3-5 3.5-7.5.2 0 .3-.2.4-.5z"/><path d="m707.9-1632.1h6.2c.9 0 .9.1.9 1.1 0 1.1-.1 1.2-.9 1.2-4.1 0-8.3 0-12.4 0-.7 0-1-.3-.9-.9 0-.1 0-.3 0-.4-.1-.7.2-1 .9-1z"/></g></svg>