<svg enable-background="new 0 0 100 100" viewBox="0 0 100 100" xmlns="http://www.w3.org/2000/svg"><path d="m48.5 82c-.6-.1-1.3-.2-1.9-.2-6.9-.8-13.4-3.8-18.4-8.7-5.2-4.9-8.5-11.5-9.5-18.5-.1-.9-.2-1.8-.4-2.8v-3.5c.1-1.1.2-2.2.4-3.3 1-6.6 4.1-12.8 8.9-17.5 4.8-5 11.2-8.2 18.1-9.1.9-.1 1.9-.2 2.8-.4h3.5c.2 0 .4.1.5.1 6.3.4 12.3 2.7 17.3 6.7 6.6 5 10.9 12.5 12 20.7.1.9.2 1.9.4 2.8v3.5c0 .2-.1.4-.1.5-.3 5.1-1.9 10-4.6 14.3-4.9 8.2-13.2 13.7-22.7 15-.9.2-1.8.3-2.8.4zm8.5-5.3c.4.3.9.4 1.4.2 10.2-3.5 16.6-10.4 19.2-20.9.4-1.8.7-3.7.6-5.6-.3-.1-.6-.2-.9-.3-.7-.5-1.3-1-1.9-1.6-.9-.8-1.7-1.6-2.6-2.3-.3-.3-.9-.4-1.3-.2-.5.2-.1.6 0 .9.3.6.1 1.4-.6 1.7-.1.1-.3.1-.4.1-.4.1-.8.1-1.2.1-1.2-.2-2.3-.8-3-1.7-1.2-1.3-2.3-2.8-3.4-4.2-.5-.7-1.1-1.3-1.7-1.9-2.2-1.5-4.6-2.6-7.1-3.3-.7-.2-1.5-.2-2.2.2s-1.4.7-2.1 1.1c-.6-.8-.5-1.8.2-2.5.6-.5 1.3-1 2-1.3 1.2-.6 2.4-1 3.6-1.4.6-.1.9-.7.8-1.2 0-.1 0-.2-.1-.2-.1-.4-.2-.9-.3-1.4-.1-.4 0-.7.3-1 1.4-1 2.9-2 4.4-3 .5-.3 1.1-.1 1.4.4.1.2.2.5.3.7.3.7.4.8 1.1.5 1-.5 2-1 3-1.5-4.7-3.4-10.4-5.2-16.2-5.2.2.2.6.3.8.6.1.3.1.7.1 1 0 .1.1.3.1.4.2.6.4 1 1.2 1 .5 0 .9.1 1.3.4s.5.8.3 1.3c-.1.2-.3.3-.5.4-.5.2-1.1.4-1.6.6-3.2 1.2-6.4 2.3-9.6 3.5-.4.1-.9.2-1.3.2-.3 0-.5-.2-.6-.5s0-.6.2-.8c.4-.4.8-.7 1.2-1.1 1.4-1.1 2.7-2.1 4.1-3.2.2-.2.5-.4.6-.7 0-.1-.1-.1-.1-.2-.4.1-.7.2-1 .3-2.3 1.1-4.6 2.2-6.8 3.3-1.2.6-2.3 1.4-2.3 3 0 .2 0 .3-.1.5-.3.3-.6.7-1 .8-.5.1-1.1.1-1.6-.1-1.2-.5-2.6-.4-3.7.2-.3.1-.7.2-1.1.2-.3 0-.7.1-.9.4-1.7 2.3-2.9 4.8-3.8 7.4-.3.7-.4 1.4-.4 2.2.3 3.8 1.3 7.4 4.1 10.2l.6.6c.4.4.7 1 .6 1.6 0 1.5-.5 3-1.4 4.2-.5.7-1 1.4-1.4 2.1-.4.6-.4 1.4 0 2.1 3.1 5.3 7.8 9.5 13.4 11.9.3.1.7.2 1 .1 2.8-.8 5.7-1.2 8.6-1.4h.4c2.4 0 5.1.8 7.3 2.3zm-3-11.4c-.3-1.4-.5-2.7-.7-4.1-.4-2.3-.7-4.6-1.1-7-.1-.3-.2-.6-.3-.9-.2-.7-.8-1.2-1.4-1.3-1.5-.4-2.9-.8-4.4-1.3-1.1-.3-2.2-.9-3.1-1.8-.8-.7-1.1-1.9-.6-2.9 1.5-3.5 5.1-5.8 8.9-5.7 1.2.2 2.4.5 3.5.9-.2.5 0 1.1.4 1.3 0 0 .1 0 .1.1.9.4 1.9.8 2.9 1.1s2.1.4 3.2.7c.4.1.7.2.9.5.5.6.9 1.2 1.3 1.9.3.5.5 1 .8 1.5.4.9 1.1 1.6 2 2 .7.3 1.4.8 2.1 1.2.3.1.5.5.4.8v.1c0 1.4-.8 2.6-2.1 3-1.1.5-1.9 1.3-2.6 2.3-1.6 2.3-3.3 4.6-5.1 6.8-.7.8-1.5 1.5-2.4 2-.4.3-.8.4-1.3.4-.6-.1-1.2-.6-1.4-1.6z" fill="#fff"/></svg>