<svg enable-background="new 0 0 100 100" viewBox="0 0 100 100" xmlns="http://www.w3.org/2000/svg" xmlns:xlink="http://www.w3.org/1999/xlink"><clipPath id="a"><path d="m0 0h100v100h-100z"/></clipPath><g clip-path="url(#a)"><path d="m64.4 81.9c-.4-.1-.8-.9-1-1.5-2.6-10.2-8.8-16.8-18.6-19.2-13.1-3.1-25.7 5.4-28.8 19-.3 1.3-.7 1.9-2.1 1.8-1.6-.1-3.2 0-5 0 1.9-12 8.2-20.2 18.3-25.5-9.4-7.9-10.6-22-2.7-31.4.3-.4.6-.7.9-1 7.6-7.8 20.1-8 28-.5 4.7 4.3 7.1 10.5 6.7 16.8-.2 6.3-3.2 12.1-8.1 16.1 10.3 5.2 16.5 13.5 18.5 25.5-1.2 0-2.4 0-3.5 0-.9 0-1.7 0-2.6-.1zm-38.4-42.8c-.1 8 6 14.4 13.6 14.4 7.7-.1 13.8-6.4 13.7-14.1.1-8-6-14.4-13.6-14.4h-.1c-7.6.2-13.7 6.5-13.6 14.1zm58.4 35.4c-.2-1.2-.3-2.2-.6-3.3-1.1-4.9-4.9-8.9-9.8-10.3-1.6-.5-3.1-1.1-3.5-3.1-.3-1.9.6-3 1.9-4.1 4-3.5 5.7-8.8 4.5-14-1.1-5.7-4.8-9.1-10.1-10.7-1.2-.2-2.1-1.1-2.4-2.2-.7-1.8-1.7-3.4-2.6-5.1 5.4-1.6 13.7 2.2 18.2 8.3 4.2 5.7 6.9 15.4-.1 25.7 3.9 2.1 7 5.4 8.9 9.4 1 2.1 1.5 4.5 2.3 6.7v2.6z" fill="#fff"/></g></svg>