<?xml version="1.0" encoding="utf-8"?>
<!-- Generator: Adobe Illustrator 21.1.0, SVG Export Plug-In . SVG Version: 6.00 Build 0)  -->
<svg version="1.1" id="Ebene_1" xmlns="http://www.w3.org/2000/svg" xmlns:xlink="http://www.w3.org/1999/xlink" x="0px" y="0px"
	 viewBox="0 0 100 100" style="enable-background:new 0 0 100 100;" xml:space="preserve">
<style type="text/css">
	.st0{clip-path:url(#SVGID_2_);}
	.st1{fill:#FFFFFF;}
</style>
<g>
	<defs>
		<rect id="SVGID_1_" width="100" height="100"/>
	</defs>
	<clipPath id="SVGID_2_">
		<use xlink:href="#SVGID_1_"  style="overflow:visible;"/>
	</clipPath>
	<g id="a" class="st0">
		<path class="st1" d="M64.4,81.9c-0.4-0.1-0.8-0.9-1-1.5c-2.6-10.2-8.8-16.8-18.6-19.2c-13.1-3.1-25.7,5.4-28.8,19
			c-0.3,1.3-0.7,1.9-2.1,1.8c-1.6-0.1-3.2,0-5,0c1.9-12,8.2-20.2,18.3-25.5c-9.4-7.9-10.6-22-2.7-31.4c0.3-0.4,0.6-0.7,0.9-1
			c7.6-7.8,20.1-8,28-0.5c4.7,4.3,7.1,10.5,6.7,16.8c-0.2,6.3-3.2,12.1-8.1,16.1C62.3,61.7,68.5,70,70.5,82c-1.2,0-2.4,0-3.5,0
			C66.1,82,65.3,82,64.4,81.9z M26,39.1c-0.1,8,6,14.4,13.6,14.4c7.7-0.1,13.8-6.4,13.7-14.1c0.1-8-6-14.4-13.6-14.4h-0.1
			C32,25.2,25.9,31.5,26,39.1L26,39.1z M84.4,74.5c-0.2-1.2-0.3-2.2-0.6-3.3c-1.1-4.9-4.9-8.9-9.8-10.3c-1.6-0.5-3.1-1.1-3.5-3.1
			c-0.3-1.9,0.6-3,1.9-4.1c4-3.5,5.7-8.8,4.5-14C75.8,34,72.1,30.6,66.8,29c-1.2-0.2-2.1-1.1-2.4-2.2c-0.7-1.8-1.7-3.4-2.6-5.1
			c5.4-1.6,13.7,2.2,18.2,8.3c4.2,5.7,6.9,15.4-0.1,25.7c3.9,2.1,7,5.4,8.9,9.4c1,2.1,1.5,4.5,2.3,6.7v2.6L84.4,74.5z"/>
	</g>
</g>
</svg>
