<svg enable-background="new 0 0 100 100" viewBox="0 0 100 100" xmlns="http://www.w3.org/2000/svg"><g fill="#009ee3" stroke="#009ee3" stroke-width="2"><path d="m23.2 82c-1.3-.8-1.5-1.4-.9-3l14.4-43.5c.4-1.2.8-1.5 2-1.5h23.6c.9-.1 1.7.5 1.8 1.4 4.8 14.7 9.7 29.3 14.5 44 .4 1.2.2 1.9-1 2.7zm51.6-3.7c-.1-.2-.1-.4-.2-.6-4.4-13.2-8.7-26.4-13.1-39.7-.1-.4-.3-.5-.7-.5-6.9 0-13.8 0-20.8 0-.4 0-.6.2-.8.6-4.3 13.1-8.7 26.3-13 39.4-.1.2-.1.4-.2.7 16.3.1 32.5.1 48.8.1z"/><path d="m51.8 18c1 .2 1.9.3 2.9.6 2.4.5 4.6 1.9 6.1 3.8 1.7 2.2 1.8 5.3.2 7.6-.5.8-1.5 1.1-2.3.7-.8-.4-1-1.4-.6-2.1 0-.1.1-.1.1-.2 1-1.5.7-3.5-.6-4.7-1.5-1.3-3.3-2.1-5.3-2.3-2.3-.4-4.7-.1-6.8.9-.8.4-1.5.9-2.2 1.5-1.3 1.2-1.5 3.1-.6 4.5.2.4.3.8.3 1.2-.1.7-.6 1.3-1.2 1.4-.8.1-1.5-.2-1.9-.9-1.9-2.8-1.4-6.5 1.2-8.7 1.8-1.7 4.1-2.8 6.6-3.1.5-.1.9-.1 1.4-.2z"/></g></svg>