<svg viewBox="0 0 226.21 125.8" xmlns="http://www.w3.org/2000/svg"><g fill="#fff"><path d="m37.24 39c.52 0 .8-.06 1.08-.06 8.48 0 17-.08 25.43 0a14.87 14.87 0 0 1 13 7.12c.87 1.34 1.67 2.72 2.48 4.1q5.34 9.09 10.67 18.2c.2.34.35.7.59 1.17a5 5 0 0 1 -.73.12c-9 0-18 .15-27-.08-5.09-.13-9-2.81-11.67-7.15-4.49-7.37-8.86-14.86-13.27-22.32-.17-.3-.32-.61-.58-1.1z"/><path d="m149.75 39.07c-2.07 3.47-4 6.76-6 10.05-2.53 4.26-5 8.53-7.59 12.78a14.94 14.94 0 0 1 -13.65 7.79c-8.48 0-17 0-25.43 0-.16 0-.32 0-.68 0 .51-.9.94-1.72 1.41-2.51 3.94-6.63 7.93-13.23 11.81-19.89a15.55 15.55 0 0 1 14.16-8.29c8.4-.06 16.8 0 25.19 0 .19 0 .38 0 .78.07z"/><path d="m93.19 0c1.41 2.46 2.81 4.8 4.1 7.16 2.91 5.14 5.71 10.33 8.71 15.44 3.23 5.55 3.16 11 .08 16.61-4 7.31-8 14.67-12 22-.13.24-.29.47-.49.8a3.67 3.67 0 0 1 -.47-.54c-4.3-7.67-8.63-15.32-12.86-23a14.93 14.93 0 0 1 0-15c3.42-6.37 6.95-12.68 10.43-19 .83-1.47 1.63-2.91 2.5-4.47z"/><path d="m2 96.83h-2v-21.67a24.76 24.76 0 0 1 2.81 0c.28 0 .63.5.74.84 1.93 5.82 3.82 11.61 5.71 17.4l.42 1.26 6.32-19.45h3.1v21.63h-2v-18.58l-.32-.05-1.52 4.69c-1.41 4.39-2.86 8.77-4.26 13.18-.25.81-.67.85-1.31.82s-1.25.14-1.56-.83c-1.77-5.72-3.69-11.42-5.58-17.12l-.29-.87-.26.02z"/><path d="m77.46 77.87v18.94h-1.89v-21.65a17.1 17.1 0 0 1 2.4 0 1.45 1.45 0 0 1 .86.79q3.87 8.28 7.67 16.58a2.87 2.87 0 0 0 .67 1v-18.28h2v21.64a14.17 14.17 0 0 1 -2.39 0 1.61 1.61 0 0 1 -.91-.88c-2.63-5.67-5.23-11.35-7.85-17-.14-.33-.28-.59-.56-1.14z"/><path d="m51 96.84h-1.63c-.08-2.12-.19-4.18-.22-6.24 0-3.14-1-4.18-4.16-4.18h-2.99v10.42h-1.89v-21.56c2.61 0 5.24-.16 7.84 0 2.16.17 3.07 1.3 3.28 3.46a19 19 0 0 1 0 3.23c-.13 1.82-1.1 3.03-3.23 3.64 2.5.35 3 1.86 3 3.65.07 2.5 0 5.01 0 7.58zm-8.93-12c1.68-.1 3.3-.13 4.91-.31a2.27 2.27 0 0 0 2-1.94 15.4 15.4 0 0 0 .18-3.59 2.13 2.13 0 0 0 -2.16-2.08c-1.62-.09-3.24 0-4.84 0z"/><path d="m177.14 115.48h-4.34v-1.63h6.36v6.45 2.28c0 2.26 0 2.33-2.23 2.66a27.66 27.66 0 0 1 -4.77.3c-2.67-.07-4.66-1.85-5.19-4.78a34.7 34.7 0 0 1 .03-12.76c.9-4.69 6.75-6.73 10.57-3.8 1.56 1.19 1.8 2.91 1.79 4.79h-1.94a3.4 3.4 0 0 1 -.07-.37c-.2-2.55-1.32-3.75-3.64-3.89-2.71-.16-4.44.93-4.73 3.47a74.73 74.73 0 0 0 -.34 8.6 18 18 0 0 0 .55 4.37 3.38 3.38 0 0 0 3.62 2.69c1.15 0 2.3-.18 3.45-.3a.91.91 0 0 0 .94-1.09c-.09-2.27-.06-4.55-.06-6.99z"/><path d="m93.78 75.2h1.91v9.63h8.31v-9.59h2v21.59h-1.91v-10.18h-8.38v10.19h-1.93z"/><path d="m109.95 85.46c.17-1.73.23-4 .67-6.23.6-3.06 2.67-4.49 6-4.52s5.46 1.38 6.07 4.43a34.33 34.33 0 0 1 0 13.78c-.68 3.3-3 4.58-6.93 4.33-3.1-.19-5-2.1-5.4-5.64-.23-1.85-.26-3.73-.41-6.15zm11.41.57c-.16-2-.21-4.11-.52-6.15a3.79 3.79 0 0 0 -4.16-3.47c-2.33 0-3.79 1.07-4.19 3.43a36.39 36.39 0 0 0 0 12.38c.43 2.45 1.81 3.41 4.31 3.38a3.73 3.73 0 0 0 4-3.56c.35-1.97.4-3.97.56-6.04z"/><path d="m200.33 103.5c2.51 0 4.95-.08 7.38 0s3.41 1.17 3.73 3.54a12.71 12.71 0 0 1 .12 1.67c0 2.28-.37 4.35-3.07 5.15a2.86 2.86 0 0 1 2.72 3.07c.12 2.67.21 5.34.32 8.09h-2.09c0-2 0-3.91 0-5.86a10.28 10.28 0 0 0 -.25-2.25 2.72 2.72 0 0 0 -2.55-2.18c-1.42-.07-2.86 0-4.36 0v10.27h-1.94zm2 9.6c1.53-.07 2.92-.11 4.31-.2a2.61 2.61 0 0 0 2.68-2.12c.35-1.72.69-3.49-.64-5a2 2 0 0 0 -1.28-.57c-1.69-.06-3.39 0-5.08 0z"/><path d="m189.17 96.78c-2 .24-2 .24-2.54-1.45-.41-1.36-.84-2.72-1.27-4.12-2.65 0-5.25 0-7.84 0a1.1 1.1 0 0 0 -.75.65c-.54 1.62-1 3.26-1.53 4.93h-2c1.3-4.15 2.57-8.21 3.85-12.26.85-2.69 1.79-5.36 2.53-8.09.31-1.14.82-1.5 1.89-1.33a6.35 6.35 0 0 0 .91 0zm-11.63-7.3h7.28l-3.65-12.14z"/><path d="m37.6 96.84c-2.08.16-2.07.16-2.6-1.63-.42-1.32-.5-3.11-1.41-3.8s-2.61-.18-4-.19h-4.23l-1.73 5.64h-2l6.84-21.67h2.36zm-4.36-7.34-3.66-12.16-3.58 12.16z"/><path d="m191.11 103.57 6.53 20.91a3.2 3.2 0 0 1 .08.47c-1.81.46-1.93.39-2.43-1.27-.41-1.37-.83-2.73-1.26-4.11h-8.45l-1.68 5.5h-2l5.6-17.7c.2-.64.4-1.29.6-1.94.64-2.11.64-2.11 3.01-1.86zm-1.18 2.43h-.22l-3.53 11.83h7.3z"/><path d="m106.26 109h-2.1c0-.21 0-.36 0-.51-.16-2.92-1.59-4.1-4.46-3.69a2.89 2.89 0 0 0 -2.75 2.11 4.07 4.07 0 0 0 1.37 4.52c1.61 1.1 3.28 2.13 4.92 3.19 2.72 1.76 3.57 3.89 2.87 7.07a4.38 4.38 0 0 1 -3.81 3.76 11 11 0 0 1 -3.45 0c-3.1-.52-4.47-2.61-4.29-6.34h1.94c.05.55.1 1.13.17 1.71a3.18 3.18 0 0 0 3.35 3.06c2.55.1 3.77-.71 4.17-2.78a4.23 4.23 0 0 0 -1.78-4.61c-1.63-1.14-3.34-2.18-5-3.27-2.43-1.6-3-3.87-2.41-6.59 0-.08 0-.16 0-.24.68-2.34 2.87-3.51 6.32-3.36a4.53 4.53 0 0 1 4.65 3.7c.15.7.19 1.42.29 2.27z"/><path d="m126.66 90.82h2.12v1.1c.11 2.49 1.26 3.62 3.74 3.68 1.48 0 2.85-.25 3.51-1.75a4.24 4.24 0 0 0 -.5-4.73 10.43 10.43 0 0 0 -2.12-1.73c-1.22-.83-2.52-1.54-3.72-2.4-2.61-1.86-3.41-4.4-2.34-7.22.81-2.15 3.19-3.32 6.19-3 3.37.3 4.93 2.19 4.81 5.9h-1.91c-.05-.35-.12-.69-.16-1-.12-1.32-.54-2.48-1.91-2.9a4.5 4.5 0 0 0 -4.53.65c-1.45 1.29-1.1 4.53.63 5.74s3.27 2.13 4.91 3.19a6.18 6.18 0 0 1 2.76 7.65 4.2 4.2 0 0 1 -2.64 2.9 7.81 7.81 0 0 1 -6.07-.15c-2.43-1.21-2.78-3.45-2.77-5.93z"/><path d="m123.32 103.51h1.87c0 .37.05.71.05 1.06v13a20.29 20.29 0 0 0 .21 2.74 3.8 3.8 0 0 0 4 3.62c2.5 0 3.95-1.12 4.34-3.53a19.36 19.36 0 0 0 .23-3c0-4.59 0-9.18 0-13.83h1.84s.11.09.11.16c0 5.2.1 10.39 0 15.59s-4.88 8-9.6 5.68a5.41 5.41 0 0 1 -3-5.1c-.12-5.45-.05-10.9-.05-16.39z"/><path d="m62.1 75.19h9.71v1.62h-7.75v8.05h7.36v1.67h-7.35v8.67h8v1.62h-10z"/><path d="m143.94 86.71v10.14h-1.88v-21.63c2.42 0 4.85-.1 7.26 0a3.43 3.43 0 0 1 3.18 2.82 10.57 10.57 0 0 1 -.17 5.79 3.69 3.69 0 0 1 -3.47 2.82c-1.58.15-3.17.06-4.92.06zm.12-9.86v8.26h3.67a2.69 2.69 0 0 0 2.86-2.36c.31-2 .69-4-1.18-5.51a2.44 2.44 0 0 0 -1.36-.36c-1.31-.06-2.62-.03-4-.03z"/><path d="m173.06 75.24v1.57h-5.22v20h-2v-19.93h-5.28v-1.64z"/><path d="m108.31 105.21v-1.66h12.49v1.58h-5.24v20.16h-2v-20.08z"/><path d="m191.69 75.19h1.87v20h7.12v1.64h-9z"/><path d="m143.73 105.18h-5.25v-1.62h12.39v1.6h-5.21v20.11h-1.93z"/><path d="m159.08 125.3h-1.93v-20.09h-5.31v-1.64h12.42v1.57h-5.18z"/><path d="m226.21 103.54v1.58h-5.21v20.13h-2v-20.06h-5.24v-1.65z"/><path d="m55.45 75.19h1.91v21.75h-1.91z"/><path d="m155.95 75.2h1.81v21.8h-1.81z"/></g></svg>