<svg xmlns="http://www.w3.org/2000/svg" viewBox="0 0 226.21 125.8"><defs><style>.cls-1{fill:#fff;}</style></defs><title>Marienhospital-Stuttgart-Logo</title><g id="Ebene_2" data-name="Ebene 2"><g id="Ebene_1-2" data-name="Ebene 1"><path class="cls-1" d="M37.24,39c.52,0,.8-.06,1.08-.06,8.48,0,17-.08,25.43,0a14.87,14.87,0,0,1,13,7.12c.87,1.34,1.67,2.72,2.48,4.1q5.34,9.09,10.67,18.2c.2.34.35.7.59,1.17a5,5,0,0,1-.73.12c-9,0-18,.15-27-.08-5.09-.13-9-2.81-11.67-7.15C46.6,55.05,42.23,47.56,37.82,40.1,37.65,39.8,37.5,39.49,37.24,39Z"/><path class="cls-1" d="M149.75,39.07c-2.07,3.47-4,6.76-6,10.05-2.53,4.26-5,8.53-7.59,12.78a14.94,14.94,0,0,1-13.65,7.79c-8.48,0-17,0-25.43,0-.16,0-.32,0-.68,0,.51-.9.94-1.72,1.41-2.51,3.94-6.63,7.93-13.23,11.81-19.89A15.55,15.55,0,0,1,123.78,39c8.4-.06,16.8,0,25.19,0C149.16,39,149.35,39,149.75,39.07Z"/><path class="cls-1" d="M93.19,0C94.6,2.46,96,4.8,97.29,7.16,100.2,12.3,103,17.49,106,22.6c3.23,5.55,3.16,11,.08,16.61-4,7.31-8,14.67-12,22-.13.24-.29.47-.49.8a3.67,3.67,0,0,1-.47-.54c-4.3-7.67-8.63-15.32-12.86-23a14.93,14.93,0,0,1,0-15c3.42-6.37,6.95-12.68,10.43-19C91.52,3,92.32,1.56,93.19,0Z"/><path class="cls-1" d="M2,96.83H0V75.16a24.76,24.76,0,0,1,2.81,0c.28,0,.63.5.74.84C5.48,81.82,7.37,87.61,9.26,93.4l.42,1.26L16,75.21h3.1V96.84h-2V78.26l-.32-.05-1.52,4.69C13.85,87.29,12.4,91.67,11,96.08c-.25.81-.67.85-1.31.82s-1.25.14-1.56-.83C6.36,90.35,4.44,84.65,2.55,78.95l-.29-.87L2,78.1Z"/><path class="cls-1" d="M77.46,77.87V96.81H75.57V75.16a17.1,17.1,0,0,1,2.4,0,1.45,1.45,0,0,1,.86.79q3.87,8.28,7.67,16.58a2.87,2.87,0,0,0,.67,1V75.25h2V96.89a14.17,14.17,0,0,1-2.39,0,1.61,1.61,0,0,1-.91-.88c-2.63-5.67-5.23-11.35-7.85-17C77.88,78.68,77.74,78.42,77.46,77.87Z"/><path class="cls-1" d="M51,96.84H49.37c-.08-2.12-.19-4.18-.22-6.24,0-3.14-1-4.18-4.16-4.18H42V96.84H40.11V75.28c2.61,0,5.24-.16,7.84,0,2.16.17,3.07,1.3,3.28,3.46a19,19,0,0,1,0,3.23C51.1,83.79,50.13,85,48,85.61c2.5.35,3,1.86,3,3.65C51.07,91.76,51,94.27,51,96.84Zm-8.93-12c1.68-.1,3.3-.13,4.91-.31a2.27,2.27,0,0,0,2-1.94A15.4,15.4,0,0,0,49.16,79,2.13,2.13,0,0,0,47,76.92c-1.62-.09-3.24,0-4.84,0Z"/><path class="cls-1" d="M177.14,115.48h-4.34v-1.63h6.36c0,2.16,0,4.3,0,6.45v2.28c0,2.26,0,2.33-2.23,2.66a27.66,27.66,0,0,1-4.77.3c-2.67-.07-4.66-1.85-5.19-4.78A34.7,34.7,0,0,1,167,108c.9-4.69,6.75-6.73,10.57-3.8,1.56,1.19,1.8,2.91,1.79,4.79h-1.94a3.4,3.4,0,0,1-.07-.37c-.2-2.55-1.32-3.75-3.64-3.89-2.71-.16-4.44.93-4.73,3.47a74.73,74.73,0,0,0-.34,8.6,18,18,0,0,0,.55,4.37,3.38,3.38,0,0,0,3.62,2.69c1.15,0,2.3-.18,3.45-.3a.91.91,0,0,0,.94-1.09C177.11,120.2,177.14,117.92,177.14,115.48Z"/><path class="cls-1" d="M93.78,75.2h1.91v9.63H104V75.24h2V96.83h-1.91V86.65H95.71V96.84H93.78Z"/><path class="cls-1" d="M109.95,85.46c.17-1.73.23-4,.67-6.23.6-3.06,2.67-4.49,6-4.52s5.46,1.38,6.07,4.43a34.33,34.33,0,0,1,0,13.78c-.68,3.3-3,4.58-6.93,4.33-3.1-.19-5-2.1-5.4-5.64C110.13,89.76,110.1,87.88,109.95,85.46Zm11.41.57c-.16-2-.21-4.11-.52-6.15a3.79,3.79,0,0,0-4.16-3.47c-2.33,0-3.79,1.07-4.19,3.43a36.39,36.39,0,0,0,0,12.38c.43,2.45,1.81,3.41,4.31,3.38a3.73,3.73,0,0,0,4-3.56C121.15,90.07,121.2,88.07,121.36,86Z"/><path class="cls-1" d="M200.33,103.5c2.51,0,4.95-.08,7.38,0s3.41,1.17,3.73,3.54a12.71,12.71,0,0,1,.12,1.67c0,2.28-.37,4.35-3.07,5.15a2.86,2.86,0,0,1,2.72,3.07c.12,2.67.21,5.34.32,8.09h-2.09c0-2,0-3.91,0-5.86a10.28,10.28,0,0,0-.25-2.25,2.72,2.72,0,0,0-2.55-2.18c-1.42-.07-2.86,0-4.36,0V125h-1.94Zm2,9.6c1.53-.07,2.92-.11,4.31-.2a2.61,2.61,0,0,0,2.68-2.12c.35-1.72.69-3.49-.64-5a2,2,0,0,0-1.28-.57c-1.69-.06-3.39,0-5.08,0Z"/><path class="cls-1" d="M189.17,96.78c-2,.24-2,.24-2.54-1.45-.41-1.36-.84-2.72-1.27-4.12-2.65,0-5.25,0-7.84,0a1.1,1.1,0,0,0-.75.65c-.54,1.62-1,3.26-1.53,4.93h-2c1.3-4.15,2.57-8.21,3.85-12.26.85-2.69,1.79-5.36,2.53-8.09.31-1.14.82-1.5,1.89-1.33a6.35,6.35,0,0,0,.91,0Zm-11.63-7.3h7.28l-3.65-12.14Z"/><path class="cls-1" d="M37.6,96.84C35.52,97,35.53,97,35,95.21c-.42-1.32-.5-3.11-1.41-3.8s-2.61-.18-4-.19H25.36l-1.73,5.64h-2l6.84-21.67h2.36ZM33.24,89.5,29.58,77.34,26,89.5Z"/><path class="cls-1" d="M191.11,103.57l6.53,20.91a3.2,3.2,0,0,1,.08.47c-1.81.46-1.93.39-2.43-1.27-.41-1.37-.83-2.73-1.26-4.11h-8.45l-1.68,5.5h-2l5.6-17.7c.2-.64.4-1.29.6-1.94C188.74,103.32,188.74,103.32,191.11,103.57ZM189.93,106l-.22,0-3.53,11.83h7.3Z"/><path class="cls-1" d="M106.26,109h-2.1c0-.21,0-.36,0-.51-.16-2.92-1.59-4.1-4.46-3.69a2.89,2.89,0,0,0-2.75,2.11,4.07,4.07,0,0,0,1.37,4.52c1.61,1.1,3.28,2.13,4.92,3.19,2.72,1.76,3.57,3.89,2.87,7.07a4.38,4.38,0,0,1-3.81,3.76,11,11,0,0,1-3.45,0c-3.1-.52-4.47-2.61-4.29-6.34h1.94c.05.55.1,1.13.17,1.71a3.18,3.18,0,0,0,3.35,3.06c2.55.1,3.77-.71,4.17-2.78a4.23,4.23,0,0,0-1.78-4.61c-1.63-1.14-3.34-2.18-5-3.27-2.43-1.6-3-3.87-2.41-6.59,0-.08,0-.16,0-.24.68-2.34,2.87-3.51,6.32-3.36a4.53,4.53,0,0,1,4.65,3.7C106.12,107.43,106.16,108.15,106.26,109Z"/><path class="cls-1" d="M126.66,90.82h2.12c0,.4,0,.75,0,1.1.11,2.49,1.26,3.62,3.74,3.68,1.48,0,2.85-.25,3.51-1.75a4.24,4.24,0,0,0-.5-4.73,10.43,10.43,0,0,0-2.12-1.73c-1.22-.83-2.52-1.54-3.72-2.4-2.61-1.86-3.41-4.4-2.34-7.22.81-2.15,3.19-3.32,6.19-3,3.37.3,4.93,2.19,4.81,5.9h-1.91c-.05-.35-.12-.69-.16-1-.12-1.32-.54-2.48-1.91-2.9a4.5,4.5,0,0,0-4.53.65c-1.45,1.29-1.1,4.53.63,5.74s3.27,2.13,4.91,3.19a6.18,6.18,0,0,1,2.76,7.65,4.2,4.2,0,0,1-2.64,2.9,7.81,7.81,0,0,1-6.07-.15C127,95.54,126.65,93.3,126.66,90.82Z"/><path class="cls-1" d="M123.32,103.51h1.87c0,.37.05.71.05,1.06,0,4.32,0,8.63,0,13a20.29,20.29,0,0,0,.21,2.74,3.8,3.8,0,0,0,4,3.62c2.5,0,3.95-1.12,4.34-3.53a19.36,19.36,0,0,0,.23-3c0-4.59,0-9.18,0-13.83h1.84s.11.09.11.16c0,5.2.1,10.39,0,15.59s-4.88,8-9.6,5.68a5.41,5.41,0,0,1-3-5.1C123.25,114.45,123.32,109,123.32,103.51Z"/><path class="cls-1" d="M62.1,75.19h9.71v1.62H64.06v8.05h7.36v1.67H64.07V95.2h8v1.62h-10Z"/><path class="cls-1" d="M143.94,86.71V96.85h-1.88V75.22c2.42,0,4.85-.1,7.26,0a3.43,3.43,0,0,1,3.18,2.82,10.57,10.57,0,0,1-.17,5.79,3.69,3.69,0,0,1-3.47,2.82C147.28,86.8,145.69,86.71,143.94,86.71Zm.12-9.86v8.26c1.29,0,2.48,0,3.67,0a2.69,2.69,0,0,0,2.86-2.36c.31-2,.69-4-1.18-5.51a2.44,2.44,0,0,0-1.36-.36C146.74,76.82,145.43,76.85,144.05,76.85Z"/><path class="cls-1" d="M173.06,75.24v1.57h-5.22v20h-2V76.88h-5.28V75.24Z"/><path class="cls-1" d="M108.31,105.21v-1.66H120.8v1.58h-5.24v20.16h-2V105.21Z"/><path class="cls-1" d="M191.69,75.19h1.87v20h7.12v1.64h-9Z"/><path class="cls-1" d="M143.73,105.18h-5.25v-1.62h12.39v1.6h-5.21v20.11h-1.93Z"/><path class="cls-1" d="M159.08,125.3h-1.93V105.21h-5.31v-1.64h12.42v1.57h-5.18Z"/><path class="cls-1" d="M226.21,103.54v1.58H221v20.13h-2V105.19h-5.24v-1.65Z"/><path class="cls-1" d="M55.45,75.19h1.91V96.94H55.45Z"/><path class="cls-1" d="M155.95,75.2h1.81V97h-1.81Z"/></g></g></svg>