<?xml version="1.0" encoding="utf-8"?>
<!-- Generator: Adobe Illustrator 22.0.1, SVG Export Plug-In . SVG Version: 6.00 Build 0)  -->
<svg version="1.1" id="Ebene_1" xmlns="http://www.w3.org/2000/svg" xmlns:xlink="http://www.w3.org/1999/xlink" x="0px" y="0px"
	 viewBox="0 0 3021.3 709.1" style="enable-background:new 0 0 3021.3 709.1;" xml:space="preserve">
<style type="text/css">
	.st0{fill:#FFFFFF;stroke:#FFFFFF;stroke-miterlimit:10;}
	.st1{fill:#FFFFFF;}
</style>
<path class="st0" d="M2451.1,63.9h-23.7l-9.1,52.1c-53.7-31.6-90.6-41.9-149-41.9c-83.7,0-159.2,30-223.1,88.4
	c-55.6,51.3-94.4,120-106.5,189.4c-26.4,150.8,79.9,274.8,235.4,274.8c82.1,0,149.3-22.9,209.3-72.6l-17-24.5
	c-49.1,45.8-101.1,67.8-157.1,67.8c-127.9-0.1-221.8-135.9-195.7-285.1c21.7-123.9,120.1-213.1,236.2-213.1
	c49,0,96.8,19.8,124.3,52.1c23.6,27.6,27.2,52.1,15.7,122.3h23.7l36.7-210L2451.1,63.9z"/>
<path class="st1" d="M2451.1,63.9h-23.7l-9.1,52.1c-53.7-31.6-90.6-41.9-149-41.9c-83.7,0-159.2,30-223.1,88.4
	c-55.6,51.3-94.4,120-106.5,189.4c-26.4,150.8,79.9,274.8,235.4,274.8c82.1,0,149.3-22.9,209.3-72.6l-17-24.5
	c-49.1,45.8-101.1,67.8-157.1,67.8c-127.9-0.1-221.8-135.9-195.7-285.1c21.7-123.9,120.1-213.1,236.2-213.1
	c49,0,96.8,19.8,124.3,52.1c23.6,27.6,27.2,52.1,15.7,122.3h23.7l36.7-210L2451.1,63.9z"/>
<path class="st1" d="M2388.7,277.9l-82.7,0v237.6l82.6,0v-41.7l-39.9,0v-70.9h29.6v-41.7h-29.6v-41.7l39.9,0v-41.7H2388.7z"/>
<path class="st1" d="M2388.7,277.9l-82.7,0v237.6l82.6,0v-41.7l-39.9,0v-70.9h29.6v-41.7h-29.6v-41.7l39.9,0v-41.7H2388.7z"/>
<path class="st1" d="M2492.5,277.9l0,118.6l-75.9-125.8v244.8l42.8,0l-0.1-93l33.1,54.9v38.1l42.8,0l-0.1-237.6h-42.8L2492.5,277.9z
	"/>
<path class="st1" d="M2492.5,277.9l0,118.6l-75.9-125.8v244.8l42.8,0l-0.1-93l33.1,54.9v38.1l42.8,0l-0.1-237.6h-42.8L2492.5,277.9z
	"/>
<path class="st1" d="M2649.1,278l-89.4,0v41.7h23.9l0,196h42.8l0-196h22.8L2649.1,278L2649.1,278z"/>
<path class="st1" d="M2649.1,278l-89.4,0v41.7h23.9l0,196h42.8l0-196h22.8L2649.1,278L2649.1,278z"/>
<path class="st1" d="M2755.3,278l-82.7,0l0.1,237.6h82.7v-41.7h-39.9V403h29.6v-41.7h-29.6v-41.7h39.9L2755.3,278L2755.3,278z"/>
<path class="st1" d="M2755.3,278l-82.7,0l0.1,237.6h82.7v-41.7h-39.9V403h29.6v-41.7h-29.6v-41.7h39.9L2755.3,278L2755.3,278z"/>
<path class="st1" d="M2783.2,278l0,237.6h42.8l0-195.9c19.6,2.5,32.4,16,32.4,34.9c0,16.7-9.6,28.5-28.5,34.9l38.2,126.1l51.3,0
	l-42.1-111.5c17.5-15.3,24.2-29.6,24.2-49.5c0-23.2-11.1-46.3-29.2-60.9c-14.9-12.5-27.8-15.7-62.4-15.7h-26.7L2783.2,278z"/>
<path class="st1" d="M2783.2,278l0,237.6h42.8l0-195.9c19.6,2.5,32.4,16,32.4,34.9c0,16.7-9.6,28.5-28.5,34.9l38.2,126.1l51.3,0
	l-42.1-111.5c17.5-15.3,24.2-29.6,24.2-49.5c0-23.2-11.1-46.3-29.2-60.9c-14.9-12.5-27.8-15.7-62.4-15.7h-26.7L2783.2,278z"/>
<path class="st0" d="M958.9,67h-24l-15.1,39.6c-21.5-14.7-35.2-19.4-60.1-19.4c-65.1,0-130.8,48.1-155.9,114.1
	c-13.3,34.9-8.2,68.2,15.6,95.4c6.7,7-2-0.8,26.8,23.2c15.9,13.2,18.4,14.8,21.7,16.3l27.5,19.4c56.8,40.3,70.3,69.8,52.3,117.1
	c-28.9,76-117.6,133.4-205.9,133.4c-85.3,0-131.8-65.1-102.2-142.7c21.9-57.4,80.1-102.4,132.1-102.4c36.5,0,56.8,24.1,44.9,55.1
	c-10.9,28.7-36.6,47.3-65.9,48.9l-5.9,15.5c10.2,3.9,15,5.4,25.1,5.4c37.2,0,72.8-24,85.7-58.1c18.6-48.9-16.2-87.6-78.2-87.6
	c-73.7,0-152.5,58.2-181.8,134.9c-35.5,93,19.6,155.8,136.7,155.8c117.9,0,235.6-76.8,275.2-180.7c18.9-49.6,13.9-91.5-15.3-122.5
	c-12.6-13.9-17.2-17.8-45.6-37.2l-43.8-29.5c-48.1-32.6-59-52.8-47.2-83.8c13.6-35.7,53.6-65.2,87.7-65.2c26.4,0,44.6,13.2,49,34.1
	c3.9,16.3,1.5,28.7-12.7,65.9L861,261.1h24.1L959,67.2L958.9,67z"/>
<path class="st1" d="M958.9,67h-24l-15.1,39.6c-21.5-14.7-35.2-19.4-60.1-19.4c-65.1,0-130.8,48.1-155.9,114.1
	c-13.3,34.9-8.2,68.2,15.6,95.4c6.7,7-2-0.8,26.8,23.2c15.9,13.2,18.4,14.8,21.7,16.3l27.5,19.4c56.8,40.3,70.3,69.8,52.3,117.1
	c-28.9,76-117.6,133.4-205.9,133.4c-85.3,0-131.8-65.1-102.2-142.7c21.9-57.4,80.1-102.4,132.1-102.4c36.5,0,56.8,24.1,44.9,55.1
	c-10.9,28.7-36.6,47.3-65.9,48.9l-5.9,15.5c10.2,3.9,15,5.4,25.1,5.4c37.2,0,72.8-24,85.7-58.1c18.6-48.9-16.2-87.6-78.2-87.6
	c-73.7,0-152.5,58.2-181.8,134.9c-35.5,93,19.6,155.8,136.7,155.8c117.9,0,235.6-76.8,275.2-180.7c18.9-49.6,13.9-91.5-15.3-122.5
	c-12.6-13.9-17.2-17.8-45.6-37.2l-43.8-29.5c-48.1-32.6-59-52.8-47.2-83.8c13.6-35.7,53.6-65.2,87.7-65.2c26.4,0,44.6,13.2,49,34.1
	c3.9,16.3,1.5,28.7-12.7,65.9L861,261.1h24.1L959,67.2L958.9,67z"/>
<path class="st1" d="M1054.4,475.3c-43.6-1.8-75.8-35-75.8-78.2c0-42.9,32.1-76.1,75.7-77.8v-42.6c-17.6,0.7-24.2,2.1-37.4,6.6
	c-48.1,16.6-80.6,62.6-80.6,113.8c0,41.5,20.8,79.6,55.1,101.8c19.7,12.8,37,18,63,19.1L1054.4,475.3L1054.4,475.3z"/>
<path class="st1" d="M1054.4,475.3c-43.6-1.8-75.8-35-75.8-78.2c0-42.9,32.1-76.1,75.7-77.8v-42.6c-17.6,0.7-24.2,2.1-37.4,6.6
	c-48.1,16.6-80.6,62.6-80.6,113.8c0,41.5,20.8,79.6,55.1,101.8c19.7,12.8,37,18,63,19.1L1054.4,475.3L1054.4,475.3z"/>
<path class="st1" d="M1123.3,362.9l0-81l-41.5-0.1l0.1,230.8h41.5l0-109.4h32.2l0.1,109.3h41.5l-0.1-230.8h-41.5l0,80.9h-32.2
	L1123.3,362.9z"/>
<path class="st1" d="M1123.3,362.9l0-81l-41.5-0.1l0.1,230.8h41.5l0-109.4h32.2l0.1,109.3h41.5l-0.1-230.8h-41.5l0,80.9h-32.2
	L1123.3,362.9z"/>
<path class="st1" d="M1311.7,282l-80.3,0l0.1,230.8l80.3,0v-40.5H1273v-68.9l28.8,0v-40.5h-28.7v-40.5l38.8,0V282H1311.7z"/>
<path class="st1" d="M1311.7,282l-80.3,0l0.1,230.8l80.3,0v-40.5H1273v-68.9l28.8,0v-40.5h-28.7v-40.5l38.8,0V282H1311.7z"/>
<path class="st1" d="M1446.1,475.4c-43.6-1.7-75.8-35-75.8-78.2c0-42.9,32.1-76.1,75.7-77.8l0-42.6c-17.6,0.7-24.2,2.1-37.4,6.6
	c-48.1,16.6-80.6,62.6-80.6,113.8c0,41.6,20.8,79.6,55.1,101.8c19.7,12.8,37,18,63,19.1L1446.1,475.4L1446.1,475.4z"/>
<path class="st1" d="M1446.1,475.4c-43.6-1.7-75.8-35-75.8-78.2c0-42.9,32.1-76.1,75.7-77.8l0-42.6c-17.6,0.7-24.2,2.1-37.4,6.6
	c-48.1,16.6-80.6,62.6-80.6,113.8c0,41.6,20.8,79.6,55.1,101.8c19.7,12.8,37,18,63,19.1L1446.1,475.4L1446.1,475.4z"/>
<path class="st1" d="M1558.9,282.1l-41.1,102.1l54.7,128.7l49.8,0L1561,384.1l41.9-102.1L1558.9,282.1L1558.9,282.1z M1473.4,282
	l0.1,230.8h41.5L1515,282L1473.4,282L1473.4,282z"/>
<path class="st1" d="M1558.9,282.1l-41.1,102.1l54.7,128.7l49.8,0L1561,384.1l41.9-102.1L1558.9,282.1L1558.9,282.1z M1473.4,282
	l0.1,230.8h41.5L1515,282L1473.4,282L1473.4,282z"/>
<path class="st1" d="M1558.9,282.1l-41.1,102.1l54.7,128.7l49.8,0L1561,384.1l41.9-102.1L1558.9,282.1L1558.9,282.1z M1473.4,282
	l0.1,230.8h41.5L1515,282L1473.4,282L1473.4,282z"/>
<path class="st1" d="M1630.9,428.5l0,40.8l64.7,0l0-40.8L1630.9,428.5z"/>
<path class="st1" d="M1630.9,428.5l0,40.8l64.7,0l0-40.8L1630.9,428.5z"/>
<path class="st1" d="M1712.6,282.1l0.1,230.8h41.5l-0.1-230.8L1712.6,282.1L1712.6,282.1z"/>
<path class="st1" d="M1712.6,282.1l0.1,230.8h41.5l-0.1-230.8L1712.6,282.1L1712.6,282.1z"/>
<path class="st1" d="M1861.7,282.2l0,115.2L1788,275.2l0.1,237.7h41.5l0-90.3l32.2,53.3l0,37h41.5l-0.1-230.8L1861.7,282.2
	L1861.7,282.2z"/>
<path class="st1" d="M1861.7,282.2l0,115.2L1788,275.2l0.1,237.7h41.5l0-90.3l32.2,53.3l0,37h41.5l-0.1-230.8L1861.7,282.2
	L1861.7,282.2z"/>
<path class="st1" d="M2935.4,263.1c4.9,0,9.6-1.2,9.6-7c0-4.4-2.9-6.5-7.3-6.5h-2.2c-2.4,0-2.2,1.5-2.2,3.3v10.2H2935.4z
	 M2928.9,251.7c-0.1-2.2-1.2-2.3-3.8-2.3v-1.3h12.2c2.8,0,6.4,0.1,8.9,1.6c2,1.3,3.1,3.5,3.1,6c0,4.9-4.2,7.5-8.6,8v0.2
	c3.4,0.4,5.4,5.2,6.8,7.9c0.5,1.2,1.6,3.7,2.5,4.7c0.7,0.8,1.6,0.9,3,0.9v1.2h-2.2c-1.6,0-3.5,0.1-4.8-0.9c-1.4-1-2.6-4.3-3.3-5.9
	c-0.7-1.6-1.9-4.9-3.2-6.3c-1.3-1.2-3.3-0.9-5-0.9h-1.4v10.4c0,2.2,0.9,2.2,3.8,2.4v1.2h-11.9v-1.2c2.9-0.2,3.8-0.2,3.8-2.4v-23.3
	L2928.9,251.7z M2963.1,264.2c0-13.5-11.1-24.4-24.8-24.4s-24.8,11-24.8,24.4c0,13.5,11.1,24.6,24.8,24.6
	C2952,288.8,2963.1,277.7,2963.1,264.2 M2910,264.2c0-15.4,12.7-27.8,28.3-27.8c15.5,0,28.1,12.5,28.1,27.8
	c0,15.4-12.6,27.9-28.1,27.9C2922.7,292.1,2910,279.7,2910,264.2"/>
</svg>
