<svg enable-background="new 0 0 3021.3 709.1" viewBox="0 0 3021.3 709.1" xmlns="http://www.w3.org/2000/svg"><g fill="#fff"><path d="m2451.1 63.9h-23.7l-9.1 52.1c-53.7-31.6-90.6-41.9-149-41.9-83.7 0-159.2 30-223.1 88.4-55.6 51.3-94.4 120-106.5 189.4-26.4 150.8 79.9 274.8 235.4 274.8 82.1 0 149.3-22.9 209.3-72.6l-17-24.5c-49.1 45.8-101.1 67.8-157.1 67.8-127.9-.1-221.8-135.9-195.7-285.1 21.7-123.9 120.1-213.1 236.2-213.1 49 0 96.8 19.8 124.3 52.1 23.6 27.6 27.2 52.1 15.7 122.3h23.7l36.7-210z" stroke="#fff" stroke-miterlimit="10"/><path d="m2451.1 63.9h-23.7l-9.1 52.1c-53.7-31.6-90.6-41.9-149-41.9-83.7 0-159.2 30-223.1 88.4-55.6 51.3-94.4 120-106.5 189.4-26.4 150.8 79.9 274.8 235.4 274.8 82.1 0 149.3-22.9 209.3-72.6l-17-24.5c-49.1 45.8-101.1 67.8-157.1 67.8-127.9-.1-221.8-135.9-195.7-285.1 21.7-123.9 120.1-213.1 236.2-213.1 49 0 96.8 19.8 124.3 52.1 23.6 27.6 27.2 52.1 15.7 122.3h23.7l36.7-210z"/><path d="m2388.7 277.9h-82.7v237.6h82.6v-41.7h-39.9v-70.9h29.6v-41.7h-29.6v-41.7h39.9v-41.7h.1z"/><path d="m2388.7 277.9h-82.7v237.6h82.6v-41.7h-39.9v-70.9h29.6v-41.7h-29.6v-41.7h39.9v-41.7h.1z"/><path d="m2492.5 277.9v118.6l-75.9-125.8v244.8h42.8l-.1-93 33.1 54.9v38.1h42.8l-.1-237.6h-42.8z"/><path d="m2492.5 277.9v118.6l-75.9-125.8v244.8h42.8l-.1-93 33.1 54.9v38.1h42.8l-.1-237.6h-42.8z"/><path d="m2649.1 278h-89.4v41.7h23.9v196h42.8v-196h22.8z"/><path d="m2649.1 278h-89.4v41.7h23.9v196h42.8v-196h22.8z"/><path d="m2755.3 278h-82.7l.1 237.6h82.7v-41.7h-39.9v-70.9h29.6v-41.7h-29.6v-41.7h39.9z"/><path d="m2755.3 278h-82.7l.1 237.6h82.7v-41.7h-39.9v-70.9h29.6v-41.7h-29.6v-41.7h39.9z"/><path d="m2783.2 278v237.6h42.8v-195.9c19.6 2.5 32.4 16 32.4 34.9 0 16.7-9.6 28.5-28.5 34.9l38.2 126.1h51.3l-42.1-111.5c17.5-15.3 24.2-29.6 24.2-49.5 0-23.2-11.1-46.3-29.2-60.9-14.9-12.5-27.8-15.7-62.4-15.7z"/><path d="m2783.2 278v237.6h42.8v-195.9c19.6 2.5 32.4 16 32.4 34.9 0 16.7-9.6 28.5-28.5 34.9l38.2 126.1h51.3l-42.1-111.5c17.5-15.3 24.2-29.6 24.2-49.5 0-23.2-11.1-46.3-29.2-60.9-14.9-12.5-27.8-15.7-62.4-15.7z"/><path d="m958.9 67h-24l-15.1 39.6c-21.5-14.7-35.2-19.4-60.1-19.4-65.1 0-130.8 48.1-155.9 114.1-13.3 34.9-8.2 68.2 15.6 95.4 6.7 7-2-.8 26.8 23.2 15.9 13.2 18.4 14.8 21.7 16.3l27.5 19.4c56.8 40.3 70.3 69.8 52.3 117.1-28.9 76-117.6 133.4-205.9 133.4-85.3 0-131.8-65.1-102.2-142.7 21.9-57.4 80.1-102.4 132.1-102.4 36.5 0 56.8 24.1 44.9 55.1-10.9 28.7-36.6 47.3-65.9 48.9l-5.9 15.5c10.2 3.9 15 5.4 25.1 5.4 37.2 0 72.8-24 85.7-58.1 18.6-48.9-16.2-87.6-78.2-87.6-73.7 0-152.5 58.2-181.8 134.9-35.5 93 19.6 155.8 136.7 155.8 117.9 0 235.6-76.8 275.2-180.7 18.9-49.6 13.9-91.5-15.3-122.5-12.6-13.9-17.2-17.8-45.6-37.2l-43.8-29.5c-48.1-32.6-59-52.8-47.2-83.8 13.6-35.7 53.6-65.2 87.7-65.2 26.4 0 44.6 13.2 49 34.1 3.9 16.3 1.5 28.7-12.7 65.9l-18.6 49.1h24.1l73.9-193.9z" stroke="#fff" stroke-miterlimit="10"/><path d="m958.9 67h-24l-15.1 39.6c-21.5-14.7-35.2-19.4-60.1-19.4-65.1 0-130.8 48.1-155.9 114.1-13.3 34.9-8.2 68.2 15.6 95.4 6.7 7-2-.8 26.8 23.2 15.9 13.2 18.4 14.8 21.7 16.3l27.5 19.4c56.8 40.3 70.3 69.8 52.3 117.1-28.9 76-117.6 133.4-205.9 133.4-85.3 0-131.8-65.1-102.2-142.7 21.9-57.4 80.1-102.4 132.1-102.4 36.5 0 56.8 24.1 44.9 55.1-10.9 28.7-36.6 47.3-65.9 48.9l-5.9 15.5c10.2 3.9 15 5.4 25.1 5.4 37.2 0 72.8-24 85.7-58.1 18.6-48.9-16.2-87.6-78.2-87.6-73.7 0-152.5 58.2-181.8 134.9-35.5 93 19.6 155.8 136.7 155.8 117.9 0 235.6-76.8 275.2-180.7 18.9-49.6 13.9-91.5-15.3-122.5-12.6-13.9-17.2-17.8-45.6-37.2l-43.8-29.5c-48.1-32.6-59-52.8-47.2-83.8 13.6-35.7 53.6-65.2 87.7-65.2 26.4 0 44.6 13.2 49 34.1 3.9 16.3 1.5 28.7-12.7 65.9l-18.6 49.1h24.1l73.9-193.9z"/><path d="m1054.4 475.3c-43.6-1.8-75.8-35-75.8-78.2 0-42.9 32.1-76.1 75.7-77.8v-42.6c-17.6.7-24.2 2.1-37.4 6.6-48.1 16.6-80.6 62.6-80.6 113.8 0 41.5 20.8 79.6 55.1 101.8 19.7 12.8 37 18 63 19.1z"/><path d="m1054.4 475.3c-43.6-1.8-75.8-35-75.8-78.2 0-42.9 32.1-76.1 75.7-77.8v-42.6c-17.6.7-24.2 2.1-37.4 6.6-48.1 16.6-80.6 62.6-80.6 113.8 0 41.5 20.8 79.6 55.1 101.8 19.7 12.8 37 18 63 19.1z"/><path d="m1123.3 362.9v-81l-41.5-.1.1 230.8h41.5v-109.4h32.2l.1 109.3h41.5l-.1-230.8h-41.5v80.9h-32.2z"/><path d="m1123.3 362.9v-81l-41.5-.1.1 230.8h41.5v-109.4h32.2l.1 109.3h41.5l-.1-230.8h-41.5v80.9h-32.2z"/><path d="m1311.7 282h-80.3l.1 230.8h80.3v-40.5h-38.8v-68.9h28.8v-40.5h-28.7v-40.5h38.8v-40.4z"/><path d="m1311.7 282h-80.3l.1 230.8h80.3v-40.5h-38.8v-68.9h28.8v-40.5h-28.7v-40.5h38.8v-40.4z"/><path d="m1446.1 475.4c-43.6-1.7-75.8-35-75.8-78.2 0-42.9 32.1-76.1 75.7-77.8v-42.6c-17.6.7-24.2 2.1-37.4 6.6-48.1 16.6-80.6 62.6-80.6 113.8 0 41.6 20.8 79.6 55.1 101.8 19.7 12.8 37 18 63 19.1z"/><path d="m1446.1 475.4c-43.6-1.7-75.8-35-75.8-78.2 0-42.9 32.1-76.1 75.7-77.8v-42.6c-17.6.7-24.2 2.1-37.4 6.6-48.1 16.6-80.6 62.6-80.6 113.8 0 41.6 20.8 79.6 55.1 101.8 19.7 12.8 37 18 63 19.1z"/><path d="m1558.9 282.1-41.1 102.1 54.7 128.7h49.8l-61.3-128.8 41.9-102.1zm-85.5-.1.1 230.8h41.5v-230.8z"/><path d="m1558.9 282.1-41.1 102.1 54.7 128.7h49.8l-61.3-128.8 41.9-102.1zm-85.5-.1.1 230.8h41.5v-230.8z"/><path d="m1558.9 282.1-41.1 102.1 54.7 128.7h49.8l-61.3-128.8 41.9-102.1zm-85.5-.1.1 230.8h41.5v-230.8z"/><path d="m1630.9 428.5v40.8h64.7v-40.8z"/><path d="m1630.9 428.5v40.8h64.7v-40.8z"/><path d="m1712.6 282.1.1 230.8h41.5l-.1-230.8z"/><path d="m1712.6 282.1.1 230.8h41.5l-.1-230.8z"/><path d="m1861.7 282.2v115.2l-73.7-122.2.1 237.7h41.5v-90.3l32.2 53.3v37h41.5l-.1-230.8z"/><path d="m1861.7 282.2v115.2l-73.7-122.2.1 237.7h41.5v-90.3l32.2 53.3v37h41.5l-.1-230.8z"/><path d="m2935.4 263.1c4.9 0 9.6-1.2 9.6-7 0-4.4-2.9-6.5-7.3-6.5h-2.2c-2.4 0-2.2 1.5-2.2 3.3v10.2zm-6.5-11.4c-.1-2.2-1.2-2.3-3.8-2.3v-1.3h12.2c2.8 0 6.4.1 8.9 1.6 2 1.3 3.1 3.5 3.1 6 0 4.9-4.2 7.5-8.6 8v.2c3.4.4 5.4 5.2 6.8 7.9.5 1.2 1.6 3.7 2.5 4.7.7.8 1.6.9 3 .9v1.2h-2.2c-1.6 0-3.5.1-4.8-.9-1.4-1-2.6-4.3-3.3-5.9s-1.9-4.9-3.2-6.3c-1.3-1.2-3.3-.9-5-.9h-1.4v10.4c0 2.2.9 2.2 3.8 2.4v1.2h-11.9v-1.2c2.9-.2 3.8-.2 3.8-2.4v-23.3zm34.2 12.5c0-13.5-11.1-24.4-24.8-24.4s-24.8 11-24.8 24.4c0 13.5 11.1 24.6 24.8 24.6s24.8-11.1 24.8-24.6m-53.1 0c0-15.4 12.7-27.8 28.3-27.8 15.5 0 28.1 12.5 28.1 27.8 0 15.4-12.6 27.9-28.1 27.9-15.6 0-28.3-12.4-28.3-27.9"/></g></svg>