<svg xmlns="http://www.w3.org/2000/svg" viewBox="0 0 51.84 51.84"><defs><style>.cls-1{fill:#010101;}</style></defs><title>Segment-Hotellerie</title><g id="Ebene_2" data-name="Ebene 2"><g id="Ebene_2-2" data-name="Ebene 2"><path class="cls-1" d="M47.52,10.37a.86.86,0,0,0,0,1.73,2.59,2.59,0,0,1,2.59,2.59V47.52a2.59,2.59,0,0,1-2.59,2.59H39.75V14.69a.86.86,0,1,0-1.73,0V51a.86.86,0,0,0,.86.86h8.64a4.33,4.33,0,0,0,4.32-4.32V14.69A4.33,4.33,0,0,0,47.52,10.37Z"/><path class="cls-1" d="M16.42,12.1H43.2V47.52a.86.86,0,0,0,1.73,0V11.23a.86.86,0,0,0-.86-.86H36.29V7.78A8,8,0,0,0,28.51,0H23.33a8.08,8.08,0,0,0-7.78,7.78v3.46A.86.86,0,0,0,16.42,12.1Zm14.69-1.73H20.74V7.78a2.6,2.6,0,0,1,2.59-2.59h5.18a2.59,2.59,0,0,1,2.59,2.59ZM17.28,7.78a6.37,6.37,0,0,1,6-6h5.18a6.29,6.29,0,0,1,6,6v2.59H32.83V7.78a4.33,4.33,0,0,0-4.32-4.32H23.33A4.33,4.33,0,0,0,19,7.78v2.59H17.28V7.78Z"/><path class="cls-1" d="M4.32,50.12a2.6,2.6,0,0,1-2.59-2.59V14.69A2.6,2.6,0,0,1,4.32,12.1H12.1V47.52a.86.86,0,0,0,1.73,0V11.23a.86.86,0,0,0-.86-.86H4.32A4.33,4.33,0,0,0,0,14.69V47.52a4.33,4.33,0,0,0,4.32,4.32.86.86,0,0,0,0-1.73Z"/><path class="cls-1" d="M21.92,32.77a.86.86,0,0,0,.43-.12l9-5.18a.86.86,0,0,0,.32-1.18l-3.46-6A.86.86,0,0,0,27,20l-9,5.18a.87.87,0,0,0-.32,1.18l3.46,6A.86.86,0,0,0,21.92,32.77Zm5.21-10.85,2.59,4.49-7.48,4.32-2.59-4.49Z"/><path class="cls-1" d="M33.7,35.43a.86.86,0,0,0,.86-.86V27.65a.86.86,0,1,0-1.73,0v6h-9.5a.86.86,0,0,0-.75.43l-1.73,3a.86.86,0,0,0,.32,1.18l4.49,2.59a.86.86,0,0,0,1.18-.31l1.58-2.67A.86.86,0,0,0,26.93,37L25.78,39l-3-1.73,1-1.81H33.7Z"/><path class="cls-1" d="M35.43,50.12H8.64V14.47a.86.86,0,1,0-1.73,0V51a.86.86,0,0,0,.86.86H35.43a.86.86,0,1,0,0-1.73Z"/></g></g></svg>