<svg enable-background="new 0 0 68.6 46.7" viewBox="0 0 68.6 46.7" xmlns="http://www.w3.org/2000/svg"><g fill="#fff"><path d="m47.8 12.5c-.5.4-.6 1-.2 1.5 2 2.7 3.1 5.9 3.1 9.3 0 8.5-6.9 15.3-15.3 15.3s-15.4-6.8-15.3-15.3c0-8.5 6.8-15.3 15.3-15.3 3.4 0 6.6 1.1 9.3 3.1.4.4 1.1.4 1.5-.1.4-.4.4-1.1-.1-1.5 0 0-.1-.1-.1-.1-3-2.3-6.8-3.6-10.6-3.6-9.7 0-17.5 7.8-17.5 17.5s7.8 17.5 17.5 17.5 17.5-7.8 17.5-17.4c0-3.8-1.3-7.6-3.6-10.6-.4-.6-1-.7-1.5-.3z"/><path d="m35.4 0c-12.9 0-23.4 10.4-23.4 23.3s10.4 23.3 23.3 23.3 23.3-10.4 23.3-23.3c.1-12.8-10.3-23.3-23.2-23.3zm0 44.5c-11.7 0-21.1-9.5-21.1-21.1s9.4-21.2 21.1-21.2 21.1 9.5 21.1 21.1c0 11.7-9.4 21.2-21.1 21.2z"/><path d="m9.9 0c-.7 0-1.1.5-1.1 1.1v9.1h-2.2v-9.1c0-.6-.5-1.1-1.1-1.1s-1.1.5-1.1 1.1v9.1h-2.2v-9.1c0-.6-.5-1.1-1.1-1.1s-1.1.5-1.1 1.1v13.1c0 2.6 1.8 4.8 4.4 5.4v26c0 .6.5 1.1 1.1 1.1s1.1-.5 1.1-1.1v-26c2.5-.5 4.4-2.8 4.4-5.4v-13.1c0-.6-.5-1.1-1.1-1.1zm-4.4 17.5c-1.8 0-3.3-1.5-3.3-3.3v-1.8h6.6v1.8c0 1.8-1.5 3.3-3.3 3.3z"/><path d="m67.5 0c-3 0-5.5 2.4-5.5 5.5v20.1c0 .6.5 1.1 1.1 1.1h3.3v19c0 .6.5 1.1 1.1 1.1s1.1-.5 1.1-1.1v-44.6c0-.6-.5-1.1-1.1-1.1zm-1.1 24.4h-2.2v-19c0-1.4.9-2.6 2.2-3.1z"/></g></svg>