<svg enable-background="new 0 0 69.7 42.3" viewBox="0 0 69.7 42.3" xmlns="http://www.w3.org/2000/svg"><g fill="#fff"><path d="m63.2 0h-22c-.5 0-.9.3-.9.8l1.9 37.7c.1.5.5.8.9.8h18.3c.5 0 .9-.3.9-.8l1.8-37.7c0-.5-.4-.8-.9-.8zm-2.7 36.5c0 .4-.4.7-.8.7h-15c-.4 0-.8-.3-.8-.7l-1.6-33.8c0-.4.4-.7.8-.7h18.2c.4 0 .8.3.8.7z"/><path d="m62.7 28.2c0 2.6-2.2 4.7-4.8 4.7h-11.4c-2.6 0-4.7-2.1-4.8-4.7h1.7c.1 1.6 1.5 2.9 3.1 2.8h11.4c1.6 0 2.9-1.2 3-2.8z"/><path d="m54.7 19.4c-.4.4-.4 1 0 1.4s1 .4 1.4 0 .4-1 0-1.4c-.4-.3-1-.3-1.4 0z"/><path d="m47.5 15.2c-.4.4-.4 1 0 1.4s1 .4 1.4 0 .4-1 0-1.4c-.4-.3-1-.3-1.4 0z"/><path d="m42.3 9.6h20.4v1h-20.4z"/><path d="m35.1 26h-26c-.1 0-.2 0-.3 0-1.2-.3-2.1-1.2-2.6-2.4-.8-2.6 1.4-5.8 1.6-6.1 4.7-5.9 10.2-7.1 13.9-7.1 7.3 0 13.7 4.5 15.4 8.8 1 2.4 1.1 4.2.3 5.5-.5.7-1.3 1.2-2.3 1.3zm-25.8-1.8h25.8c.3 0 .7-.2.8-.5.2-.4.5-1.4-.4-3.8-1.5-3.7-7.3-7.6-13.7-7.6-3.3 0-8.2 1.1-12.4 6.3-.5.7-1.8 3-1.3 4.4.1.6.6 1 1.2 1.2z"/><path d="m34 39.1h-23.9c-2.1 0-3.8-2.3-3.8-5.1v-.5c0-.5.4-.9.9-.9h29.7c.5 0 .9.4.9.9v.5c0 2.8-1.7 5.1-3.8 5.1zm-25.9-4.7c.1 1.5 1 2.8 1.9 2.8h24c.8 0 1.8-1.1 1.9-2.8z"/><path d="m22.4 31.4c-1.5 0-3-.5-4.2-1.5-.9-.7-2-1.2-3.2-1.3-.4-.1-.8 0-1.2.2-.2.1-.3.2-.4.4-.2.2-.4.4-.6.5-2.8 1.9-5.8 1.5-8.4-1.3-.3-.4-.2-1 .3-1.3.3-.2.8-.2 1.1 0 2 2.1 3.9 2.5 5.9 1 .1-.1.3-.2.4-.4.2-.2.4-.4.7-.6.7-.4 1.4-.5 2.2-.5 1.6.1 3.1.7 4.3 1.6.9.7 2.1 1.1 3.3 1.1.9-.2 1.8-.6 2.6-1.2.5-.3 1-.6 1.6-.9 1.2-.6 2.7-.6 3.8.2.3.2.5.4.8.6.5.4 1.1.8 1.7 1.1 1 .3 2.2.1 2.9-.7.2-.2.4-.3.5-.5.6-.8 1.6-1.2 2.6-1.3.5 0 1 .4 1 .9s-.4 1-.9 1c-.5 0-.8.2-1.3.8-.2.2-.4.4-.6.6-1.3 1.3-3.2 1.7-4.9 1-.7-.4-1.4-.8-2-1.3-.2-.2-.5-.4-.7-.5-.6-.4-1.3-.4-1.9-.1-.5.2-.9.5-1.4.8-1 .8-2.2 1.3-3.5 1.5z"/><ellipse cx="14.7" cy="20" rx="1" ry="1"/><ellipse cx="28.6" cy="20" rx="1" ry="1"/><ellipse cx="22" cy="16.1" rx="1.3" ry="1.2"/><path d="m68.8 38.5c0 1.7-1.3 3-3 3h-61.9c-1.7 0-3-1.3-3-3"/><path d="m65.8 42.4h-61.9c-2.2 0-3.9-1.7-3.9-3.9 0-.5.4-.9.9-.9s.9.4.9.9c0 1.2.9 2.1 2.1 2.1h61.9c1.2 0 2.1-.9 2.1-2.1 0-.5.4-.9.9-.9s.9.4.9.9c0 2.2-1.7 3.9-3.9 3.9z"/></g></svg>