<?xml version="1.0" encoding="utf-8"?>
<!-- Generator: Adobe Illustrator 21.1.0, SVG Export Plug-In . SVG Version: 6.00 Build 0)  -->
<svg version="1.1" id="Ebene_1" xmlns="http://www.w3.org/2000/svg" xmlns:xlink="http://www.w3.org/1999/xlink" x="0px" y="0px"
	 viewBox="0 0 69.7 42.3" style="enable-background:new 0 0 69.7 42.3;" xml:space="preserve">
<style type="text/css">
	.st0{fill:#FFFFFF;}
</style>
<title>Segment-Gemeinschaftsverpflegung</title>
<g id="Ebene_2">
	<g id="Ebene_2-2">
		<path class="st0" d="M63.2,0h-22c-0.5,0-0.9,0.3-0.9,0.8l1.9,37.7c0.1,0.5,0.5,0.8,0.9,0.8h18.3c0.5,0,0.9-0.3,0.9-0.8l1.8-37.7
			C64.1,0.3,63.7,0,63.2,0z M60.5,36.5c0,0.4-0.4,0.7-0.8,0.7h-15c-0.4,0-0.8-0.3-0.8-0.7L42.3,2.7c0-0.4,0.4-0.7,0.8-0.7l0,0h18.2
			c0.4,0,0.8,0.3,0.8,0.7L60.5,36.5z"/>
		<path class="st0" d="M62.7,28.2c0,2.6-2.2,4.7-4.8,4.7H46.5c-2.6,0-4.7-2.1-4.8-4.7h1.7c0.1,1.6,1.5,2.9,3.1,2.8h11.4
			c1.6,0,2.9-1.2,3-2.8H62.7z"/>
		<path class="st0" d="M54.7,19.4c-0.4,0.4-0.4,1,0,1.4s1,0.4,1.4,0s0.4-1,0-1.4l0,0C55.7,19.1,55.1,19.1,54.7,19.4z"/>
		<path class="st0" d="M47.5,15.2c-0.4,0.4-0.4,1,0,1.4s1,0.4,1.4,0s0.4-1,0-1.4l0,0C48.5,14.9,47.9,14.9,47.5,15.2z"/>
		<rect x="42.3" y="9.6" class="st0" width="20.4" height="1"/>
		<path class="st0" d="M35.1,26h-26c-0.1,0-0.2,0-0.3,0c-1.2-0.3-2.1-1.2-2.6-2.4c-0.8-2.6,1.4-5.8,1.6-6.1
			c4.7-5.9,10.2-7.1,13.9-7.1c7.3,0,13.7,4.5,15.4,8.8c1,2.4,1.1,4.2,0.3,5.5C36.9,25.4,36.1,25.9,35.1,26L35.1,26z M9.3,24.2h25.8
			c0.3,0,0.7-0.2,0.8-0.5c0.2-0.4,0.5-1.4-0.4-3.8c-1.5-3.7-7.3-7.6-13.7-7.6c-3.3,0-8.2,1.1-12.4,6.3c-0.5,0.7-1.8,3-1.3,4.4
			C8.2,23.6,8.7,24,9.3,24.2z"/>
		<path class="st0" d="M34,39.1H10.1c-2.1,0-3.8-2.3-3.8-5.1v-0.5c0-0.5,0.4-0.9,0.9-0.9h29.7c0.5,0,0.9,0.4,0.9,0.9l0,0V34
			C37.8,36.8,36.1,39.1,34,39.1z M8.1,34.4c0.1,1.5,1,2.8,1.9,2.8h24c0.8,0,1.8-1.1,1.9-2.8H8.1z"/>
		<path class="st0" d="M22.4,31.4c-1.5,0-3-0.5-4.2-1.5c-0.9-0.7-2-1.2-3.2-1.3c-0.4-0.1-0.8,0-1.2,0.2c-0.2,0.1-0.3,0.2-0.4,0.4
			c-0.2,0.2-0.4,0.4-0.6,0.5C10,31.6,7,31.2,4.4,28.4c-0.3-0.4-0.2-1,0.3-1.3c0.3-0.2,0.8-0.2,1.1,0c2,2.1,3.9,2.5,5.9,1
			c0.1-0.1,0.3-0.2,0.4-0.4c0.2-0.2,0.4-0.4,0.7-0.6c0.7-0.4,1.4-0.5,2.2-0.5c1.6,0.1,3.1,0.7,4.3,1.6c0.9,0.7,2.1,1.1,3.3,1.1
			c0.9-0.2,1.8-0.6,2.6-1.2c0.5-0.3,1-0.6,1.6-0.9c1.2-0.6,2.7-0.6,3.8,0.2c0.3,0.2,0.5,0.4,0.8,0.6c0.5,0.4,1.1,0.8,1.7,1.1
			c1,0.3,2.2,0.1,2.9-0.7c0.2-0.2,0.4-0.3,0.5-0.5c0.6-0.8,1.6-1.2,2.6-1.3c0.5,0,1,0.4,1,0.9s-0.4,1-0.9,1l0,0
			c-0.5,0-0.8,0.2-1.3,0.8c-0.2,0.2-0.4,0.4-0.6,0.6c-1.3,1.3-3.2,1.7-4.9,1c-0.7-0.4-1.4-0.8-2-1.3c-0.2-0.2-0.5-0.4-0.7-0.5
			c-0.6-0.4-1.3-0.4-1.9-0.1c-0.5,0.2-0.9,0.5-1.4,0.8c-1,0.8-2.2,1.3-3.5,1.5L22.4,31.4z"/>
		<ellipse class="st0" cx="14.7" cy="20" rx="1" ry="1"/>
		<ellipse class="st0" cx="28.6" cy="20" rx="1" ry="1"/>
		<ellipse class="st0" cx="22" cy="16.1" rx="1.3" ry="1.2"/>
		<g>
			<path class="st0" d="M68.8,38.5c0,1.7-1.3,3-3,3H3.9c-1.7,0-3-1.3-3-3"/>
			<path class="st0" d="M65.8,42.4H3.9c-2.2,0-3.9-1.7-3.9-3.9c0-0.5,0.4-0.9,0.9-0.9s0.9,0.4,0.9,0.9c0,1.2,0.9,2.1,2.1,2.1h61.9
				c1.2,0,2.1-0.9,2.1-2.1c0-0.5,0.4-0.9,0.9-0.9s0.9,0.4,0.9,0.9C69.7,40.7,68,42.4,65.8,42.4z"/>
		</g>
	</g>
</g>
</svg>
